<svg xmlns="http://www.w3.org/2000/svg" width="15.807" height="16.25" viewBox="0 0 15.807 16.25">
  <path id="Icon_material-settings" data-name="Icon material-settings" d="M17.348,11.921a5.6,5.6,0,0,0,0-1.592l1.714-1.341a.41.41,0,0,0,.1-.52L17.535,5.657a.408.408,0,0,0-.5-.179l-2.023.813a5.936,5.936,0,0,0-1.373-.8l-.309-2.153a.4.4,0,0,0-.4-.341H9.686a.4.4,0,0,0-.4.341L8.979,5.494a6.242,6.242,0,0,0-1.373.8L5.583,5.478a.4.4,0,0,0-.5.179L3.462,8.468a.4.4,0,0,0,.1.52l1.714,1.341a6.444,6.444,0,0,0-.057.8,6.444,6.444,0,0,0,.057.8L3.56,13.262a.41.41,0,0,0-.1.52l1.625,2.811a.408.408,0,0,0,.5.179l2.023-.812a5.936,5.936,0,0,0,1.373.8l.309,2.153a.4.4,0,0,0,.4.341h3.25a.4.4,0,0,0,.4-.341l.309-2.153a6.242,6.242,0,0,0,1.373-.8l2.023.812a.4.4,0,0,0,.5-.179l1.625-2.811a.41.41,0,0,0-.1-.52l-1.714-1.341Zm-6.037,2.048a2.844,2.844,0,1,1,2.844-2.844A2.847,2.847,0,0,1,11.311,13.969Z" transform="translate(-3.406 -3)" fill="#0F0C75"/>
</svg>
