<svg xmlns="http://www.w3.org/2000/svg" width="18" height="18" viewBox="0 0 10.463 18.5"><defs><style>.a{fill:#fff;opacity:0.559;}</style></defs><path class="a" d="M15.112,12.619c-2.333-.606-3.083-1.233-3.083-2.21,0-1.12,1.038-1.9,2.775-1.9,1.829,0,2.508.874,2.569,2.158h2.271a4.1,4.1,0,0,0-3.3-3.916V4.5H13.262V6.72c-1.994.432-3.6,1.727-3.6,3.71,0,2.374,1.963,3.556,4.831,4.245,2.569.617,3.083,1.521,3.083,2.477,0,.709-.5,1.84-2.775,1.84-2.117,0-2.95-.946-3.063-2.158H9.48c.123,2.251,1.809,3.515,3.782,3.936V23h3.083V20.79c2-.38,3.6-1.542,3.6-3.649C19.943,14.223,17.445,13.226,15.112,12.619Z" transform="translate(-9.48 -4.5)"/></svg>