<svg xmlns="http://www.w3.org/2000/svg" width="18" height="15" viewBox="0 0 15.918 12.076"><defs><style>.a{opacity:0.548;}.b{fill:#fff;}</style></defs><g class="a" transform="translate(361 142.138)"><g transform="translate(-361 -216)"><g transform="translate(0 73.862)"><path class="b" d="M1.647,73.862a1.647,1.647,0,1,0,1.647,1.647A1.647,1.647,0,0,0,1.647,73.862Zm0,4.391A1.647,1.647,0,1,0,3.293,79.9,1.647,1.647,0,0,0,1.647,78.253Zm0,4.391a1.647,1.647,0,1,0,1.647,1.647A1.647,1.647,0,0,0,1.647,82.644Zm4.391-6.038H14.82a1.1,1.1,0,1,0,0-2.2H6.038a1.1,1.1,0,1,0,0,2.2Zm8.782,2.2H6.038a1.1,1.1,0,1,0,0,2.2H14.82a1.1,1.1,0,0,0,0-2.2Zm0,4.391H6.038a1.1,1.1,0,1,0,0,2.2H14.82a1.1,1.1,0,1,0,0-2.2Z" transform="translate(0 -73.862)"/></g></g></g></svg>