<svg xmlns="http://www.w3.org/2000/svg" xmlns:xlink="http://www.w3.org/1999/xlink" width="875.255" height="188" viewBox="0 0 875.255 188">
  <defs>
    <clipPath id="clip-path">
      <path id="Path_11793" data-name="Path 11793" d="M707-1627h822.681v151.92H707Z" transform="translate(-707 1627)" fill="none" clip-rule="evenodd"/>
    </clipPath>
    <clipPath id="clip-path-2">
      <path id="Path_11803" data-name="Path 11803" d="M709-1491.436q20.41-10.633,26.362-9.883c13.115.629,18.509,14.322,36.41,18.441s37.546,2.439,48.457,1.2,21.559-6.175,32.627-3.706,23.791,4.815,30.236,3.122,16.086-15.5,26.45-15.5,22.748,7.019,28.855,3.509,18.567-24.029,27.559-21.445,20.508,16.309,28.76,16.309,26.571-6.477,32.784-10.38,14.673-13.853,22.591-13.853,45.717,18.409,58.217,15.526,21.657-15.6,31.887-19.085,22.7-8.608,26.867-14.736,18.3-31.52,24.83-30.289c13.562,5.239,20.9,30.289,52.949,32.029,15.34-2.2,22.127-71.495,32.933-71.495,7.507,1.587,18.848,26.526,32.227,26.526s21.3-.419,26.157,2.155S1355-1572.2,1364.309-1572.2s20.016-15.122,30.738-15.122h25.971c5.633,0,18.415-6.489,25.659-6.489s25.938,18.193,30.854,18.193,23.994-3.522,27.74-7.367q3.746-3.845,27.117-40.012v150.151H709Z" transform="translate(-709 1623)" fill="none" clip-rule="evenodd"/>
    </clipPath>
  </defs>
  <g id="Group_12618" data-name="Group 12618" transform="translate(-3 2)">
    <g id="Group_12491" data-name="Group 12491" transform="translate(53.529 6)">
      <g id="Group_12492" data-name="Group 12492" transform="translate(0)">
        <g id="Group_12017" data-name="Group 12017" clip-path="url(#clip-path)">
          <g id="Group_12496" data-name="Group 12496" transform="translate(-3.206 -1.796)">
            <path id="Path_11791" data-name="Path 11791" d="M702-1632h829.093v155.511H702Z" transform="translate(-702 1632)" fill="#fff"/>
          </g>
        </g>
        <g id="Group_12495" data-name="Group 12495" transform="translate(0 1.415)">
          <g id="Group_12018" data-name="Group 12018">
            <path id="Path_11794" data-name="Path 11794" d="M0,1H822.681" transform="translate(0 -1)" fill="none" stroke="#e9ecee" stroke-linecap="square" stroke-width="1"/>
          </g>
          <g id="Group_12019" data-name="Group 12019" transform="translate(0 29.015)">
            <path id="Path_11795" data-name="Path 11795" d="M0,1H822.681" transform="translate(0 -1)" fill="none" stroke="#e9ecee" stroke-linecap="square" stroke-width="1"/>
          </g>
          <g id="Group_12020" data-name="Group 12020" transform="translate(0 59.274)">
            <path id="Path_11796" data-name="Path 11796" d="M0,1H822.681" transform="translate(0 -1)" fill="none" stroke="#e9ecee" stroke-linecap="square" stroke-width="1"/>
          </g>
          <g id="Group_12021" data-name="Group 12021" transform="translate(0 89.45)">
            <path id="Path_11797" data-name="Path 11797" d="M0,1H822.681" transform="translate(0 -1)" fill="none" stroke="#e9ecee" stroke-linecap="square" stroke-width="1"/>
          </g>
          <g id="Group_12022" data-name="Group 12022" transform="translate(0 119.267)">
            <path id="Path_11798" data-name="Path 11798" d="M0,1H822.681" transform="translate(0 -1)" fill="none" stroke="#e9ecee" stroke-linecap="square" stroke-width="1"/>
          </g>
          <g id="Group_12023" data-name="Group 12023" transform="translate(0 149.443)">
            <path id="Path_11799" data-name="Path 11799" d="M0,1H822.681" transform="translate(0 -1)" fill="none" stroke="rgba(241,241,241,0.6)" stroke-linecap="square" stroke-width="2"/>
          </g>
        </g>
        <g id="Group_12026" data-name="Group 12026" transform="translate(0.708 1.415)" clip-path="url(#clip-path-2)">
          <g id="Group_12494" data-name="Group 12494" transform="translate(-3.204 -1.796)">
            <path id="Path_11801" data-name="Path 11801" d="M704-1628h829.8v153.743H704Z" transform="translate(-704 1628)" fill="rgba(0,122,255,0.1)"/>
          </g>
        </g>
        <g id="Group_12497" data-name="Group 12497" transform="translate(0.708 1.415)">
          <g id="Group_12027" data-name="Group 12027">
            <path id="Path_11804" data-name="Path 11804" d="M0,131.55q20.411-10.632,26.362-9.882c13.115.628,18.508,14.321,36.411,18.439s37.545,2.439,48.457,1.2,21.559-6.174,32.627-3.706,23.791,4.814,30.236,3.121,16.086-15.495,26.45-15.495,22.748,7.019,28.855,3.509,18.567-24.026,27.559-21.443,20.508,16.308,28.76,16.308,26.571-6.476,32.785-10.378S333.174,99.37,341.092,99.37s45.717,18.407,58.216,15.525,21.658-15.6,31.888-19.083,22.7-8.606,26.867-14.734,18.3-31.517,24.83-30.285c13.562,5.238,20.9,30.285,52.949,32.025,15.341-2.2,22.128-71.487,32.933-71.487,7.507,1.587,18.848,26.523,32.227,26.523s21.3-.419,26.158,2.155S646,50.792,655.31,50.792s20.016-15.121,30.739-15.121h25.971c5.634,0,18.415-6.488,25.658-6.488s25.938,18.191,30.854,18.191,23.994-3.522,27.74-7.366Q800.017,36.163,823.388,0" fill="none" stroke="#007aff" stroke-width="1.5"/>
          </g>
        </g>
      </g>
    </g>
    <text id="_21_Dec" data-name="21 Dec" transform="translate(54 183)" fill="#3ba3fb" font-size="12" font-family="SegoeUI, Segoe UI" letter-spacing="-0.025em"><tspan x="0" y="0">21 Dec</tspan></text>
    <text id="_22_Dec" data-name="22 Dec" transform="translate(222 183)" fill="#3ba3fb" font-size="12" font-family="SegoeUI, Segoe UI" letter-spacing="-0.025em"><tspan x="-34.981" y="0">22 Dec</tspan></text>
    <text id="_23_Dec" data-name="23 Dec" transform="translate(354 183)" fill="#3ba3fb" font-size="12" font-family="SegoeUI, Segoe UI" letter-spacing="-0.025em"><tspan x="-34.981" y="0">23 Dec</tspan></text>
    <text id="_24_Dec" data-name="24 Dec" transform="translate(485 183)" fill="#3ba3fb" font-size="12" font-family="SegoeUI, Segoe UI" letter-spacing="-0.025em"><tspan x="-34.981" y="0">24 Dec</tspan></text>
    <g id="Group_12617" data-name="Group 12617" transform="translate(0)">
      <text id="_3.5_L" data-name="3.5 L" transform="translate(29 12)" fill="#3ba3fb" font-size="13" font-family="SegoeUI, Segoe UI" letter-spacing="-0.025em"><tspan x="-25.235" y="0">3.5 L</tspan></text>
      <text id="_3_L" data-name="3 L" transform="translate(30 40)" fill="#3ba3fb" font-size="13" font-family="SegoeUI, Segoe UI" letter-spacing="-0.025em"><tspan x="-16.048" y="0">3 L</tspan></text>
      <text id="_2.5_L" data-name="2.5 L" transform="translate(29 69)" fill="#3ba3fb" font-size="13" font-family="SegoeUI, Segoe UI" letter-spacing="-0.025em"><tspan x="-25.235" y="0">2.5 L</tspan></text>
      <text id="_2_L" data-name="2 L" transform="translate(29 100)" fill="#3ba3fb" font-size="13" font-family="SegoeUI, Segoe UI" letter-spacing="-0.025em"><tspan x="-16.048" y="0">2 L</tspan></text>
      <text id="_1_L" data-name="1 L" transform="translate(29 160)" fill="#3ba3fb" font-size="13" font-family="SegoeUI, Segoe UI" letter-spacing="-0.025em"><tspan x="-16.048" y="0">1 L</tspan></text>
      <text id="_1.5_L" data-name="1.5 L" transform="translate(29 131)" fill="#3ba3fb" font-size="13" font-family="SegoeUI, Segoe UI" letter-spacing="-0.025em"><tspan x="-25.235" y="0">1.5 L</tspan></text>
    </g>
    <text id="_26_Dec" data-name="26 Dec" transform="translate(748 183)" fill="#3ba3fb" font-size="12" font-family="SegoeUI, Segoe UI" letter-spacing="-0.025em"><tspan x="-34.981" y="0">26 Dec</tspan></text>
    <text id="_27_Dec" data-name="27 Dec" transform="translate(878 183)" fill="#3ba3fb" font-size="12" font-family="SegoeUI, Segoe UI" letter-spacing="-0.025em"><tspan x="-34.981" y="0">27 Dec</tspan></text>
    <text id="_25_Dec" data-name="25 Dec" transform="translate(616 183)" fill="#3ba3fb" font-size="12" font-family="SegoeUI, Segoe UI" letter-spacing="-0.025em"><tspan x="-34.981" y="0">25 Dec</tspan></text>
  </g>
</svg>
