<svg xmlns="http://www.w3.org/2000/svg" width="189.053" height="192.075" viewBox="0 0 189.053 192.075">
    <g id="Group_"  transform="translate(-8228.246 -11401.58)" >
        <g id="Group_13907"  transform="translate(7426.268 11046.845)">
            <g id="Group_13890"  transform="translate(801.979 354.735)">
                <g id="Group_13889"  transform="translate(0 0)">
                    <path id="Path_12684"  d="M-2779.706,9075.79v-94.548H-2660.4s28.594,17.907,32.119,39.351c2.094,12.737-2.5,28.882-8.5,38.4-1.885,2.993-3.787,5.631-5.207,7.5-1.26,1.657-3.883,6.4-3.883,6.4l-34.455-17.072s13.958-17.381,12.969-27.88-16.922-14.117-16.922-14.117h-58.379v45.175Z" transform="translate(2806.294 -8981.242)" fill="#fff"/>
                    <path id="Path_12685"  d="M-2815.236,9115.421v33.3l98.126-46.666,49.258,25.455s3.205,14.42-2.4,23.211-20.024,11.952-20.024,11.952h-60.946v-39.162l-37.892,18.328V9195.9h108.487s21.363-1.566,34.906-12.475c10.794-8.693,16.622-23.318,18.619-29.123a11.008,11.008,0,0,0,.551-2.152,11.327,11.327,0,0,0,.263-2.372c.241-4.756.385-16.909-3.353-26.271-4.817-12.065-16.081-19.5-16.081-19.5l-69.223-33.028Z" transform="translate(2815.236 -9003.827)" fill="#fff"/>
                    <rect id="Rectangle_5092"  width="8.98" height="8.98" rx="2" transform="translate(92.676 122.545)" fill="#fff"/>
                    <rect id="Rectangle_5095"  width="8.98" height="8.98" rx="2" transform="translate(92.676 133.022)" fill="#fff"/>
                    <rect id="Rectangle_5093"  width="8.98" height="8.98" rx="2" transform="translate(103.152 122.545)" fill="#fff"/>
                    <rect id="Rectangle_5094"  width="8.98" height="8.98" rx="2" transform="translate(103.152 133.022)" fill="#fff"/>
                </g>
            </g>
        </g>
    </g>
</svg>
