<svg xmlns="http://www.w3.org/2000/svg" width="963" height="1028" viewBox="0 0 963 1028">
<g id="_42" transform="translate(10929 14720)">
    <rect id="Rectangle_5334" width="963" height="1028" transform="translate(-10929 -14720)" fill="#2e0789"/>
    <g id="Group_12493" transform="translate(-10823.199 -14542.34)">
        <rect id="Rectangle_5092" width="48.356" height="48.356" rx="20" transform="translate(336.808 439.769)" fill="#fff"/>
        <rect id="Rectangle_5095" width="48.356" height="48.356" rx="20" transform="translate(336.808 496.183)" fill="#fff"/>
        <rect id="Rectangle_5093" width="48.356" height="48.356" rx="20" transform="translate(393.223 439.769)" fill="#fff"/>
        <rect id="Rectangle_5094" width="48.356" height="48.356" rx="20" transform="translate(393.223 496.183)" fill="#fff"/>
        <path id="Path_12740"  d="M201.842,302.846V57.093H549.786S730.375,157.675,585.2,302.846" transform="translate(-18.305 -74.822)" fill="none" stroke="#fff" stroke-linecap="round" stroke-linejoin="round" stroke-width="100"/>
        <path id="Path_12741" d="M114.947,493.129,386.262,378.907l233.1,114.221s29.9,60.814,10.6,131.769c-16.077,57.429-91.655,105.246-135.494,107.618-247.461,1.008-314.146,0-314.146,0V616.083" transform="translate(0 -83.554)" fill="none" stroke="#fff" stroke-linecap="round" stroke-linejoin="round" stroke-width="100"/>
    </g>
</g>
</svg>
