<svg xmlns="http://www.w3.org/2000/svg" xmlns:xlink="http://www.w3.org/1999/xlink" width="15.071" height="15.071" viewBox="0 0 9.071 9.071"><defs><style>.a{fill:#fff;}.b{clip-path:url(#a);}.c{clip-path:url(#b);}</style><clipPath id="a"><path class="a" d="M61.536-1844.464a2.267,2.267,0,0,0,2.268-2.268A2.267,2.267,0,0,0,61.536-1849a2.267,2.267,0,0,0-2.268,2.268A2.267,2.267,0,0,0,61.536-1844.464Zm0,1.134c-1.514,0-4.536.76-4.536,2.268v1.134h9.071v-1.134C66.071-1842.571,63.049-1843.33,61.536-1843.33Z" transform="translate(-57 1849)"/></clipPath><clipPath id="b"><path class="a" d="M0-1661.07H1015.959V-2607H0Z" transform="translate(0 2607)"/></clipPath></defs><g class="b" transform="translate(0 0)"><g class="c" transform="translate(-20.682 -275.035)"><path class="a" d="M52-1854H64.7v12.7H52Z" transform="translate(-33.132 2127.22)"/></g></g></svg>