<svg xmlns="http://www.w3.org/2000/svg" width="13.249" height="13.253" viewBox="0 0 13.249 13.253">
  <path id="Icon_metro-link" data-name="Icon metro-link" d="M8.609,10.556a.687.687,0,0,1-.487-.2,3.237,3.237,0,0,1,0-4.573l2.544-2.544A3.234,3.234,0,1,1,15.24,7.81L14.076,8.973A.689.689,0,0,1,13.1,8l1.163-1.163a1.855,1.855,0,0,0-2.624-2.624L9.1,6.756a1.857,1.857,0,0,0,0,2.624.689.689,0,0,1-.487,1.176ZM6.168,15.542a3.234,3.234,0,0,1-2.287-5.52L5.044,8.859a.689.689,0,0,1,.975.975L4.856,11A1.855,1.855,0,0,0,7.48,13.62l2.544-2.544a1.858,1.858,0,0,0,0-2.624A.689.689,0,1,1,11,7.477a3.237,3.237,0,0,1,0,4.573L8.454,14.595a3.213,3.213,0,0,1-2.287.947Z" transform="translate(-2.936 -2.29)" fill="#2699fb"/>
</svg>
