<svg xmlns="http://www.w3.org/2000/svg" width="18" height="18" viewBox="0 0 15.9 11.13"><defs><style>.a{fill:#fefefe;opacity:0.648;}</style></defs><path class="a" d="M15.624,6.688,12.282,2.679a1.193,1.193,0,0,0-.916-.429H.795A.8.8,0,0,0,0,3.045V10.2a.8.8,0,0,0,.795.795H1.59a2.385,2.385,0,0,0,4.77,0H9.54a2.385,2.385,0,0,0,4.77,0H15.1A.8.8,0,0,0,15.9,10.2V7.452A1.194,1.194,0,0,0,15.624,6.688ZM1.59,6.225V3.84H3.975V6.225Zm2.385,5.962a1.192,1.192,0,1,1,1.192-1.192A1.192,1.192,0,0,1,3.975,12.187ZM7.95,6.225H5.565V3.84H7.95Zm3.975,5.962a1.192,1.192,0,1,1,1.192-1.192A1.192,1.192,0,0,1,11.925,12.187ZM9.54,6.225V3.84h1.64l1.987,2.385Z" transform="translate(0 -2.25)"/></svg>