<svg xmlns="http://www.w3.org/2000/svg" width="13.018" height="13.017" viewBox="0 0 13.018 13.017">
  <g id="status-16-filled" transform="translate(-2.001 -0.982)">
    <g id="Group_12569" data-name="Group 12569">
      <path id="Path_12212" data-name="Path 12212" d="M14.354,1.646a2.268,2.268,0,0,0-3.207,0L6.9,5.9a.5.5,0,0,0-.121.2l-1.25,3.75a.5.5,0,0,0,.632.632l3.75-1.25a.5.5,0,0,0,.2-.12l4.25-4.25a2.268,2.268,0,0,0,0-3.208Z" fill="#fff"/>
      <path id="Path_12213" data-name="Path 12213" d="M12.987,7.634A5,5,0,1,1,8.366,3.013l.883-.883A6,6,0,1,0,13.87,6.751Z" fill="#fff"/>
    </g>
  </g>
</svg>
