<svg xmlns="http://www.w3.org/2000/svg" xmlns:xlink="http://www.w3.org/1999/xlink" width="18" height="18" viewBox="0 0 16 16"><defs><style>.a{fill:#fff;}.b{opacity:0.552;clip-path:url(#a);}.c{clip-path:url(#b);}</style><clipPath id="a"><path class="a" d="M65-1841a4,4,0,0,0,4-4,4,4,0,0,0-4-4,4,4,0,0,0-4,4A4,4,0,0,0,65-1841Zm0,2c-2.67,0-8,1.34-8,4v2H73v-2C73-1837.66,67.67-1839,65-1839Z" transform="translate(0 0)"/></clipPath><clipPath id="b"><path class="a" d="M0-938.519H1792V-2607H0Z" transform="translate(0 2607)"/></clipPath></defs><g class="b" transform="translate(-57 1849)"><g class="c" transform="translate(20.52 -2334.12)"><path class="a" d="M52-1854H74.4v22.4H52Z" transform="translate(-18.72 2335.92)"/></g></g></svg>