<svg xmlns="http://www.w3.org/2000/svg" xmlns:xlink="http://www.w3.org/1999/xlink" width="150" height="96" viewBox="0 0 150 96">
  <defs>
    <linearGradient id="linear-gradient" x1="1" y1="0.5" x2="0" y2="0.5" gradientUnits="objectBoundingBox">
      <stop offset="0" stop-color="#fdc403"/>
      <stop offset="1" stop-color="#fdc403"/>
    </linearGradient>
  </defs>
  <g id="Group_14564" data-name="Group 14564" transform="translate(681 -977)">
    <rect id="Rectangle_5669" data-name="Rectangle 5669" width="150" height="96" rx="10" transform="translate(-681 977)" fill="url(#linear-gradient)"/>
    <path id="crown-solid" d="M42.259,35.856H8.964a1.284,1.284,0,0,0-1.281,1.281V39.7a1.284,1.284,0,0,0,1.281,1.281H42.259A1.284,1.284,0,0,0,43.539,39.7V37.136A1.284,1.284,0,0,0,42.259,35.856Zm5.122-25.611a3.843,3.843,0,0,0-3.842,3.842,3.764,3.764,0,0,0,.352,1.585L38.1,19.144a2.558,2.558,0,0,1-3.538-.928L28.036,6.8a3.842,3.842,0,1,0-4.85,0L16.663,18.216a2.559,2.559,0,0,1-3.538.928L7.339,15.671a3.84,3.84,0,1,0-3.5,2.257,3.923,3.923,0,0,0,.616-.064l5.787,15.431H40.978l5.787-15.431a3.923,3.923,0,0,0,.616.064,3.842,3.842,0,0,0,0-7.683Z" transform="translate(-632 1007)" fill="#0f0c75"/>
  </g>
</svg>
