<svg xmlns="http://www.w3.org/2000/svg" xmlns:xlink="http://www.w3.org/1999/xlink" width="490" height="357" viewBox="0 0 490 357">
  <defs>
    <clipPath id="clip-Artboard_1">
      <rect width="490" height="357"/>
    </clipPath>
  </defs>
  <g id="Artboard_1" data-name="Artboard – 1" clip-path="url(#clip-Artboard_1)">
    <g id="Group_14550" data-name="Group 14550" transform="translate(-484.004 -341.208)">
      <g id="XMLID_1101_" transform="translate(708.174 349.062) rotate(41)">
        <g id="XMLID_400_" transform="translate(-3.019 2.625)">
          <path id="XMLID_437_" d="M37.548,11.906H28.416l-2.8-8.634A4.66,4.66,0,0,0,21.116,0H21.11a4.66,4.66,0,0,0-4.5,3.284l-2.773,8.623h-9.1a4.732,4.732,0,0,0-2.77,8.569L9.352,25.8,6.53,34.463a4.661,4.661,0,0,0,1.719,5.3,4.661,4.661,0,0,0,5.567,0l7.364-5.365,7.327,5.325a4.732,4.732,0,0,0,7.278-5.3l-2.822-8.6,7.363-5.339a4.732,4.732,0,0,0-2.778-8.563Zm.7,5.7L29.846,23.7a1.766,1.766,0,0,0-.641,1.98l3.224,9.827a1.2,1.2,0,0,1-1.846,1.345l-8.366-6.081a1.766,1.766,0,0,0-2.078,0l-8.4,6.122a1.2,1.2,0,0,1-1.848-1.342l3.221-9.885a1.766,1.766,0,0,0-.645-1.979L4.039,17.611a1.2,1.2,0,0,1,.7-2.174H15.126a1.766,1.766,0,0,0,1.681-1.225l3.167-9.848a1.148,1.148,0,0,1,1.141-.833h0a1.147,1.147,0,0,1,1.142.83l3.2,9.855a1.766,1.766,0,0,0,1.68,1.221H37.548a1.2,1.2,0,0,1,.7,2.172Z" transform="translate(-11.482 210.56)" fill="#fdc403"/>
          <path id="XMLID_446_" d="M10.195,26.957a3.45,3.45,0,0,0,2.917,2.913,3.668,3.668,0,0,0,.57.045,3.441,3.441,0,0,0,3.1-1.924L19.62,22.38l6.234.994a3.5,3.5,0,0,0,3.029-5.937L24.4,12.955,27.266,7.34a3.5,3.5,0,0,0-4.72-4.709L16.949,5.5,12.483,1.037A3.451,3.451,0,0,0,8.41.4,3.45,3.45,0,0,0,6.547,4.073l1.007,6.239L1.918,13.178a3.5,3.5,0,0,0,1.044,6.584l6.249.981Zm.109-14.08a1.766,1.766,0,0,0,.943-1.856L10.049,3.6l5.313,5.313a1.766,1.766,0,0,0,2.055.322l6.662-3.419-3.409,6.679A1.766,1.766,0,0,0,21,14.545l5.326,5.327L18.9,18.69a1.766,1.766,0,0,0-1.854.947l-3.381,6.68L12.5,18.922a1.766,1.766,0,0,0-1.47-1.469L3.6,16.286Z" transform="translate(213.717 -26.242)" fill="#fdc403"/>
          <path id="XMLID_447_" d="M32.2,1.176A1.766,1.766,0,1,0,28.884,2.4,16.859,16.859,0,0,1,25,20.1,13.1,13.1,0,0,1,6.5,20.1,10.116,10.116,0,0,1,6.5,5.8a7.739,7.739,0,0,1,10.945,0,5.845,5.845,0,0,1,0,8.257,4.323,4.323,0,0,1-6.106,0,1.766,1.766,0,1,0-2.5,2.5,7.858,7.858,0,0,0,11.1,0,9.381,9.381,0,0,0,0-13.252A11.272,11.272,0,0,0,4,3.3,13.648,13.648,0,0,0,4,22.6a16.637,16.637,0,0,0,23.5,0A20.4,20.4,0,0,0,32.2,1.176Z" transform="translate(-37.736 139.318)" fill="#0f0c75"/>
          <path id="XMLID_451_" d="M6.71,0a6.711,6.711,0,1,0,6.71,6.711A6.718,6.718,0,0,0,6.71,0Zm0,9.889A3.179,3.179,0,1,1,9.889,6.711,3.182,3.182,0,0,1,6.71,9.889Z" transform="translate(201.017 215.515)" fill="#fdc403"/>
          <path id="XMLID_454_" d="M5.605,0a5.605,5.605,0,1,0,5.605,5.605A5.612,5.612,0,0,0,5.605,0Zm0,7.679A2.074,2.074,0,1,1,7.679,5.605,2.076,2.076,0,0,1,5.605,7.679Z" transform="translate(232.42 87.417)" fill="#0f0c75"/>
          <path id="XMLID_1123_" d="M6.711,13.421A6.71,6.71,0,1,0,0,6.71a6.718,6.718,0,0,0,6.711,6.711Zm0-9.889A3.179,3.179,0,1,1,3.532,6.71,3.182,3.182,0,0,1,6.71,3.532Z" transform="translate(37.766 5.901)" fill="#fdc403"/>
          <path id="XMLID_1125_" d="M1.766,0A1.766,1.766,0,0,0,0,1.766V4.121a1.766,1.766,0,0,0,3.532,0V1.766A1.766,1.766,0,0,0,1.766,0Z" transform="translate(281.306 32.781)" fill="#0f0c75"/>
          <path id="XMLID_1126_" d="M1.766,0A1.766,1.766,0,0,0,0,1.766V4.12a1.766,1.766,0,1,0,3.532,0V1.766A1.766,1.766,0,0,0,1.766,0Z" transform="translate(281.306 62.381)" fill="#0f0c75"/>
          <path id="XMLID_1128_" d="M4.12,3.532A1.766,1.766,0,1,0,4.12,0H1.766a1.766,1.766,0,0,0,0,3.532Z" transform="translate(293.235 48.758)" fill="#0f0c75"/>
          <path id="XMLID_1129_" d="M0,1.766A1.766,1.766,0,0,0,1.766,3.532H4.12A1.766,1.766,0,0,0,4.12,0H1.766A1.766,1.766,0,0,0,0,1.766Z" transform="translate(267.986 48.758)" fill="#0f0c75"/>
          <path id="XMLID_1130_" d="M6.138,4.911A6.173,6.173,0,0,0,4.318.517a1.766,1.766,0,1,0-2.5,2.5,2.685,2.685,0,0,1,0,3.793,6.214,6.214,0,0,0,0,8.788,1.766,1.766,0,1,0,2.5-2.5,2.685,2.685,0,0,1,0-3.793,6.172,6.172,0,0,0,1.82-4.394Z" transform="translate(93.171 14.586)" fill="#0f0c75"/>
          <path id="XMLID_1132_" d="M11.069,0A6.425,6.425,0,0,0,4.652,6.417,2.889,2.889,0,0,1,1.766,9.3a1.766,1.766,0,0,0,0,3.532A6.425,6.425,0,0,0,8.184,6.417a2.889,2.889,0,0,1,2.886-2.886,1.766,1.766,0,1,0,0-3.532Z" transform="translate(90.892 230.259)" fill="#0f0c75"/>
          <path id="XMLID_1133_" d="M1.766,3.532A1.767,1.767,0,0,0,3.532,1.766,1.767,1.767,0,0,0,1.766,0,1.767,1.767,0,0,0,0,1.766,1.767,1.767,0,0,0,1.766,3.532Z" transform="translate(149.152 -16.701)" fill="#0f0c75"/>
        </g>
      </g>
      <g id="Group_14124" data-name="Group 14124">
        <g id="to-do-list_1_" data-name="to-do-list (1)" transform="translate(607.822 467.064)">
          <g id="Out_line_24_" transform="translate(68)">
            <path id="Path_13059" data-name="Path 13059" d="M385.027,162.739a1.027,1.027,0,0,0,1.027-1.027V61.027a1.027,1.027,0,1,0-2.055,0V161.712A1.027,1.027,0,0,0,385.027,162.739Z" transform="translate(-302.836 -44.589)" fill="#0f0c75"/>
            <path id="Path_13060" data-name="Path 13060" d="M369.027,60A1.027,1.027,0,0,0,368,61.027V161.712a1.027,1.027,0,1,0,2.055,0V61.027A1.027,1.027,0,0,0,369.027,60Z" transform="translate(-290.946 -44.589)" fill="#0f0c75"/>
            <path id="Path_13061" data-name="Path 13061" d="M99.082,138.384h6.164a3.086,3.086,0,0,0,3.082-3.082v-6.164a3.056,3.056,0,0,0-.3-1.325l2.058-2.058a1.027,1.027,0,1,0-1.453-1.453l-2.058,2.058a3.056,3.056,0,0,0-1.325-.3H99.082A3.086,3.086,0,0,0,96,129.138V135.3A3.086,3.086,0,0,0,99.082,138.384Zm-1.027-9.247a1.028,1.028,0,0,1,1.027-1.027h5.739l-4.411,4.411a1.027,1.027,0,1,0,1.453,1.453h0l4.41-4.41V135.3a1.028,1.028,0,0,1-1.027,1.027H99.082a1.028,1.028,0,0,1-1.027-1.027Z" transform="translate(-88.808 -92.151)" fill="#fdc403"/>
            <path id="Path_13062" data-name="Path 13062" d="M99.082,218.384h6.164a3.086,3.086,0,0,0,3.082-3.082v-6.164a3.056,3.056,0,0,0-.3-1.325l2.058-2.058a1.027,1.027,0,1,0-1.453-1.453l-2.058,2.058a3.057,3.057,0,0,0-1.325-.3H99.082A3.086,3.086,0,0,0,96,209.138V215.3A3.086,3.086,0,0,0,99.082,218.384Zm-1.027-9.247a1.028,1.028,0,0,1,1.027-1.027h5.739l-4.411,4.411a1.027,1.027,0,0,0,1.453,1.453l4.411-4.411V215.3a1.028,1.028,0,0,1-1.027,1.027H99.082a1.028,1.028,0,0,1-1.027-1.027Z" transform="translate(-88.808 -151.603)" fill="#fdc403"/>
            <path id="Path_13063" data-name="Path 13063" d="M99.082,298.384h6.164a3.086,3.086,0,0,0,3.082-3.082v-6.164a3.056,3.056,0,0,0-.3-1.325l2.058-2.058a1.027,1.027,0,1,0-1.453-1.453l-2.058,2.058a3.057,3.057,0,0,0-1.325-.3H99.082A3.086,3.086,0,0,0,96,289.137V295.3A3.086,3.086,0,0,0,99.082,298.384Zm-1.027-9.247a1.028,1.028,0,0,1,1.027-1.027h5.739l-4.411,4.411a1.027,1.027,0,0,0,1.453,1.453l4.411-4.411V295.3a1.028,1.028,0,0,1-1.027,1.027H99.082a1.028,1.028,0,0,1-1.027-1.027Z" transform="translate(-88.808 -211.055)" fill="#fdc403"/>
            <path id="Path_13064" data-name="Path 13064" d="M99.082,384.329h6.164a3.086,3.086,0,0,0,3.082-3.082v-6.164A3.086,3.086,0,0,0,105.247,372H99.082A3.086,3.086,0,0,0,96,375.082v6.164A3.086,3.086,0,0,0,99.082,384.329Zm-1.027-9.246a1.028,1.028,0,0,1,1.027-1.027h6.164a1.029,1.029,0,0,1,1.027,1.027v6.164a1.029,1.029,0,0,1-1.027,1.027H99.082a1.028,1.028,0,0,1-1.027-1.027Z" transform="translate(-88.808 -276.453)" fill="#fdc403"/>
            <path id="Path_13065" data-name="Path 13065" d="M148.137,10.274H139.88C139.454,4.522,135.486,0,130.671,0c-3.574,0-6.681,2.491-8.219,6.127C120.913,2.491,117.806,0,114.233,0s-6.681,2.491-8.219,6.127C104.475,2.491,101.368,0,97.794,0s-6.681,2.491-8.219,6.127C88.037,2.491,84.93,0,81.356,0c-5.1,0-9.247,5.07-9.247,11.3,0,.025,0,.05,0,.075A8.189,8.189,0,0,0,68,18.493v96.575a8.228,8.228,0,0,0,8.219,8.219h71.917a8.228,8.228,0,0,0,8.219-8.219V18.493A8.228,8.228,0,0,0,148.137,10.274ZM73.462,14.156a10.264,10.264,0,0,0,3.8,6.046c-.006.115-.013.23-.013.345,0,2.833,1.844,5.137,4.11,5.137s4.11-2.3,4.11-5.137a6.392,6.392,0,0,0-.073-.95c0-.023,0-.046-.008-.07-.38-2.346-2.041-4.118-4.028-4.118-.656,0-1.364-.806-1.754-2.055H89.741A10.469,10.469,0,0,0,93.7,20.2c-.006.115-.013.23-.013.345,0,2.833,1.844,5.137,4.11,5.137s4.11-2.3,4.11-5.137a6.39,6.39,0,0,0-.073-.95c0-.023,0-.046-.008-.07-.38-2.346-2.041-4.118-4.028-4.118-.656,0-1.364-.806-1.754-2.055h10.138a10.469,10.469,0,0,0,3.957,6.846c-.006.115-.013.23-.013.345,0,2.833,1.844,5.137,4.11,5.137s4.11-2.3,4.11-5.137a6.392,6.392,0,0,0-.073-.95c0-.023,0-.046-.008-.07-.38-2.346-2.041-4.118-4.028-4.118-.656,0-1.364-.806-1.754-2.055h10.138a10.469,10.469,0,0,0,3.957,6.846c-.006.115-.013.23-.013.345,0,2.833,1.844,5.137,4.11,5.137s4.11-2.3,4.11-5.137a6.39,6.39,0,0,0-.073-.95c0-.023,0-.046-.008-.07-.38-2.346-2.041-4.118-4.028-4.118-.656,0-1.364-.806-1.754-2.055h6.891a5.142,5.142,0,0,1,5.137,5.137v96.575a5.142,5.142,0,0,1-5.137,5.137H76.219a5.142,5.142,0,0,1-5.137-5.137V18.493a5.137,5.137,0,0,1,2.38-4.337ZM81.356,3.082c3.4,0,6.164,3.687,6.164,8.219H85.466c0-3.457-1.805-6.164-4.11-6.164s-4.11,2.708-4.11,6.164,1.805,6.164,4.11,6.164a2.181,2.181,0,0,1,1.821,1.685,4.7,4.7,0,0,1-1.821.37c-3.4,0-6.164-3.687-6.164-8.219S77.957,3.082,81.356,3.082Zm.946,7.192H80.41a3.2,3.2,0,0,1,.946-2.043,3.194,3.194,0,0,1,.946,2.043Zm1.046,11c-.224,1.335-1.044,2.359-1.993,2.359s-1.77-1.026-1.993-2.362A6.644,6.644,0,0,0,83.349,21.271ZM101.9,11.3c0-3.457-1.805-6.164-4.11-6.164s-4.11,2.708-4.11,6.164,1.805,6.164,4.11,6.164a2.181,2.181,0,0,1,1.821,1.685,4.7,4.7,0,0,1-1.821.37c-3.4,0-6.164-3.687-6.164-8.219S94.4,3.082,97.794,3.082s6.164,3.687,6.164,8.219Zm-3.163-1.027H96.848a3.2,3.2,0,0,1,.946-2.043,3.194,3.194,0,0,1,.946,2.043Zm1.046,11c-.224,1.335-1.044,2.359-1.993,2.359S96.024,22.6,95.8,21.268a6.644,6.644,0,0,0,3.986,0ZM114.233,3.082c3.4,0,6.164,3.687,6.164,8.219h-2.055c0-3.457-1.805-6.164-4.11-6.164s-4.11,2.708-4.11,6.164,1.805,6.164,4.11,6.164a2.181,2.181,0,0,1,1.821,1.685,4.7,4.7,0,0,1-1.821.37c-3.4,0-6.164-3.687-6.164-8.219S110.834,3.082,114.233,3.082Zm.946,7.192h-1.892a3.2,3.2,0,0,1,.946-2.043,3.194,3.194,0,0,1,.946,2.043Zm1.046,11c-.224,1.335-1.044,2.359-1.993,2.359s-1.77-1.026-1.993-2.362A6.644,6.644,0,0,0,116.225,21.271ZM130.671,3.082c3.4,0,6.164,3.687,6.164,8.219H134.78c0-3.457-1.805-6.164-4.11-6.164s-4.11,2.708-4.11,6.164,1.805,6.164,4.11,6.164a2.181,2.181,0,0,1,1.821,1.685,4.7,4.7,0,0,1-1.821.37c-3.4,0-6.164-3.687-6.164-8.219S127.272,3.082,130.671,3.082Zm.946,7.192h-1.892a3.2,3.2,0,0,1,.946-2.043,3.194,3.194,0,0,1,.946,2.043Zm1.046,11c-.224,1.335-1.044,2.359-1.993,2.359s-1.77-1.026-1.993-2.362A6.644,6.644,0,0,0,132.664,21.271ZM143,115.068V18.493a7.168,7.168,0,0,0-2.165-5.137h7.3a5.142,5.142,0,0,1,5.137,5.137v96.575a5.142,5.142,0,0,1-5.137,5.137h-7.3A7.168,7.168,0,0,0,143,115.068Z" transform="translate(-68 0)" fill="#0f0c75"/>
            <path id="Path_13066" data-name="Path 13066" d="M169.247,142.055h-8.219a1.027,1.027,0,0,1,0-2.055h8.219a1.027,1.027,0,1,1,0,2.055Z" transform="translate(-136.37 -104.041)" fill="#0f0c75"/>
            <path id="Path_13067" data-name="Path 13067" d="M241.685,142.055H217.027a1.027,1.027,0,1,1,0-2.055h24.657a1.027,1.027,0,1,1,0,2.055Z" transform="translate(-177.986 -104.041)" fill="#0f0c75"/>
            <path id="Path_13068" data-name="Path 13068" d="M177.466,166.055H161.027a1.027,1.027,0,0,1,0-2.055h16.438a1.027,1.027,0,0,1,0,2.055Z" transform="translate(-136.37 -121.877)" fill="#0f0c75"/>
            <path id="Path_13069" data-name="Path 13069" d="M265.466,166.055H249.027a1.027,1.027,0,0,1,0-2.055h16.438a1.027,1.027,0,1,1,0,2.055Z" transform="translate(-201.767 -121.877)" fill="#0f0c75"/>
            <path id="Path_13070" data-name="Path 13070" d="M165.137,222.055h-4.11a1.027,1.027,0,0,1,0-2.055h4.11a1.027,1.027,0,0,1,0,2.055Z" transform="translate(-136.37 -163.493)" fill="#0f0c75"/>
            <path id="Path_13071" data-name="Path 13071" d="M229.794,222.055H201.027a1.027,1.027,0,1,1,0-2.055h28.767a1.027,1.027,0,1,1,0,2.055Z" transform="translate(-166.096 -163.493)" fill="#0f0c75"/>
            <path id="Path_13072" data-name="Path 13072" d="M179.52,246.055H161.027a1.027,1.027,0,0,1,0-2.055H179.52a1.027,1.027,0,1,1,0,2.055Z" transform="translate(-136.37 -181.329)" fill="#0f0c75"/>
            <path id="Path_13073" data-name="Path 13073" d="M271.411,246.055H257.027a1.027,1.027,0,1,1,0-2.055h14.383a1.027,1.027,0,0,1,0,2.055Z" transform="translate(-207.713 -181.329)" fill="#0f0c75"/>
            <path id="Path_13074" data-name="Path 13074" d="M169.247,302.055h-8.219a1.027,1.027,0,0,1,0-2.055h8.219a1.027,1.027,0,1,1,0,2.055Z" transform="translate(-136.37 -222.946)" fill="#0f0c75"/>
            <path id="Path_13075" data-name="Path 13075" d="M295.192,302.055h-6.164a1.027,1.027,0,0,1,0-2.055h6.164a1.027,1.027,0,0,1,0,2.055Z" transform="translate(-231.493 -222.946)" fill="#0f0c75"/>
            <path id="Path_13076" data-name="Path 13076" d="M229.356,302.055H217.027a1.027,1.027,0,1,1,0-2.055h12.329a1.027,1.027,0,1,1,0,2.055Z" transform="translate(-177.986 -222.946)" fill="#0f0c75"/>
            <path id="Path_13077" data-name="Path 13077" d="M169.247,326.055h-8.219a1.027,1.027,0,0,1,0-2.055h8.219a1.027,1.027,0,1,1,0,2.055Z" transform="translate(-136.37 -240.781)" fill="#0f0c75"/>
            <path id="Path_13078" data-name="Path 13078" d="M235.52,326.055H217.027a1.027,1.027,0,1,1,0-2.055H235.52a1.027,1.027,0,1,1,0,2.055Z" transform="translate(-177.986 -240.781)" fill="#0f0c75"/>
            <path id="Path_13079" data-name="Path 13079" d="M169.247,382.055h-8.219a1.027,1.027,0,0,1,0-2.055h8.219a1.027,1.027,0,1,1,0,2.055Z" transform="translate(-136.37 -282.398)" fill="#0f0c75"/>
            <path id="Path_13080" data-name="Path 13080" d="M241.685,382.055H217.027a1.027,1.027,0,1,1,0-2.055h24.657a1.027,1.027,0,1,1,0,2.055Z" transform="translate(-177.986 -282.398)" fill="#0f0c75"/>
            <path id="Path_13081" data-name="Path 13081" d="M207.192,406.055h-6.164a1.027,1.027,0,1,1,0-2.055h6.164a1.027,1.027,0,0,1,0,2.055Z" transform="translate(-166.096 -300.233)" fill="#0f0c75"/>
            <path id="Path_13082" data-name="Path 13082" d="M165.137,406.055h-4.11a1.027,1.027,0,0,1,0-2.055h4.11a1.027,1.027,0,0,1,0,2.055Z" transform="translate(-136.37 -300.233)" fill="#0f0c75"/>
            <path id="Path_13083" data-name="Path 13083" d="M265.466,406.055H249.027a1.027,1.027,0,0,1,0-2.055h16.438a1.027,1.027,0,1,1,0,2.055Z" transform="translate(-201.767 -300.233)" fill="#0f0c75"/>
          </g>
        </g>
        <g id="Group_12764" data-name="Group 12764" transform="translate(737.811 563.033)">
          <g id="Ellipse_399" data-name="Ellipse 399" transform="translate(0.692 0.69)" fill="#fff" stroke="#0f0c75" stroke-linecap="round" stroke-linejoin="round" stroke-width="2">
            <ellipse cx="16.845" cy="16.845" rx="16.845" ry="16.845" stroke="none"/>
            <ellipse cx="16.845" cy="16.845" rx="15.845" ry="15.845" fill="none"/>
          </g>
          <path id="Icon_ionic-md-close-circle" data-name="Icon ionic-md-close-circle" d="M20.911,3.375A17.536,17.536,0,1,0,38.447,20.911,17.475,17.475,0,0,0,20.911,3.375Zm8.768,23.849-2.455,2.455-6.313-6.313L14.6,29.679l-2.455-2.455,6.313-6.313L12.143,14.6,14.6,12.143l6.313,6.313,6.313-6.313L29.679,14.6l-6.313,6.313Z" transform="translate(-3.374 -3.375)" fill="#fff" stroke="#0f0c75" stroke-linecap="round" stroke-linejoin="round" stroke-width="2"/>
        </g>
      </g>
    </g>
  </g>
</svg>
