<!-- <svg id="XMLID_386_" xmlns="http://www.w3.org/2000/svg" width="57.789" height="55.473" viewBox="0 0 57.789 55.473">
  <path id="XMLID_389_" d="M57.678,40.668A22.781,22.781,0,0,0,39.962,20.691V17.824a3.837,3.837,0,0,0-.926-7.562H30.91a3.838,3.838,0,0,0-.926,7.562V20.7a22.664,22.664,0,0,0-11.115,6.114,22.908,22.908,0,0,0-1.916,2.175c-.028,0-.057,0-.086,0H8.823a1.129,1.129,0,1,0,0,2.257h6.593a22.627,22.627,0,0,0-2,4.338H1.129a1.129,1.129,0,1,0,0,2.257H12.775a22.949,22.949,0,0,0-.56,4.338H7.224a1.129,1.129,0,0,0,0,2.257h5.027a22.916,22.916,0,0,0,.7,4.338H5.644a1.129,1.129,0,0,0,0,2.257h8.033a22.8,22.8,0,0,0,19.06,14.6q1.118.11,2.237.11a22.855,22.855,0,0,0,12.443-3.677,1.129,1.129,0,1,0-1.232-1.892,20.542,20.542,0,1,1,6.05-6.058,1.129,1.129,0,1,0,1.893,1.229A22.873,22.873,0,0,0,57.678,40.668ZM29.329,14.1a1.582,1.582,0,0,1,1.58-1.58h8.127a1.58,1.58,0,1,1,0,3.16H30.91A1.582,1.582,0,0,1,29.329,14.1Zm2.911,6.212V17.937h5.464v2.37A23,23,0,0,0,32.241,20.311Z" transform="translate(0 -10.262)" fill="#0f0c75"/>
  <path id="XMLID_391_" d="M436.9,425.5a1.129,1.129,0,1,0,.8.331A1.135,1.135,0,0,0,436.9,425.5Z" transform="translate(-386.584 -378.632)" fill="#0f0c75"/>
  <path id="XMLID_394_" d="M172.382,144.609a17.51,17.51,0,1,0,17.51,17.51A17.529,17.529,0,0,0,172.382,144.609Zm0,32.762a15.252,15.252,0,1,1,15.252-15.252A15.269,15.269,0,0,1,172.382,177.371Z" transform="translate(-137.392 -129.445)" fill="#0f0c75"/>
  <path id="XMLID_397_" d="M270.154,219.742l-5.59,5.59a3.5,3.5,0,0,0-3.1,0l-2.5-2.5a1.129,1.129,0,0,0-1.6,1.6l2.5,2.5a3.507,3.507,0,1,0,6.291,0l5.426-5.426h0l.164-.164a1.129,1.129,0,0,0-1.6-1.6Zm-7.14,9.986a1.25,1.25,0,1,1,1.25-1.25A1.251,1.251,0,0,1,263.014,229.728Z" transform="translate(-228.024 -195.804)" fill="#fdc403"/>
  <path id="XMLID_398_" d="M399.829,289.86h-1.046a1.129,1.129,0,0,0,0,2.257h1.046a1.129,1.129,0,1,0,0-2.257Z" transform="translate(-352.771 -258.302)" fill="#0f0c75"/>
  <path id="XMLID_399_" d="M195.256,289.616h-1.046a1.129,1.129,0,1,0,0,2.257h1.046a1.129,1.129,0,1,0,0-2.257Z" transform="translate(-171.289 -258.085)" fill="#0f0c75"/>
  <path id="XMLID_400_" d="M301.252,186.122a1.129,1.129,0,0,0,1.129-1.129v-1.046a1.129,1.129,0,0,0-2.257,0v1.046A1.129,1.129,0,0,0,301.252,186.122Z" transform="translate(-266.248 -163.342)" fill="#0f0c75"/>
  <path id="XMLID_424_" d="M301.008,387.393a1.129,1.129,0,0,0-1.129,1.129v1.046a1.129,1.129,0,0,0,2.257,0v-1.046A1.129,1.129,0,0,0,301.008,387.393Z" transform="translate(-266.031 -344.826)" fill="#0f0c75"/>
  <path id="XMLID_425_" d="M1.129,351.44a1.129,1.129,0,1,0,.8,1.927,1.129,1.129,0,0,0-.8-1.927Z" transform="translate(0 -312.931)" fill="#0f0c75"/>
</svg> -->




<svg id="XMLID_386_" xmlns="http://www.w3.org/2000/svg" width="57.789" height="55.473" viewBox="0 0 57.789 55.473">
  <path id="XMLID_389_" d="M57.678,40.668A22.781,22.781,0,0,0,39.962,20.691V17.824a3.837,3.837,0,0,0-.926-7.562H30.91a3.838,3.838,0,0,0-.926,7.562V20.7a22.664,22.664,0,0,0-11.115,6.114,22.908,22.908,0,0,0-1.916,2.175c-.028,0-.057,0-.086,0H8.823a1.129,1.129,0,1,0,0,2.257h6.593a22.627,22.627,0,0,0-2,4.338H1.129a1.129,1.129,0,1,0,0,2.257H12.775a22.949,22.949,0,0,0-.56,4.338H7.224a1.129,1.129,0,0,0,0,2.257h5.027a22.916,22.916,0,0,0,.7,4.338H5.644a1.129,1.129,0,0,0,0,2.257h8.033a22.8,22.8,0,0,0,19.06,14.6q1.118.11,2.237.11a22.855,22.855,0,0,0,12.443-3.677,1.129,1.129,0,1,0-1.232-1.892,20.542,20.542,0,1,1,6.05-6.058,1.129,1.129,0,1,0,1.893,1.229A22.873,22.873,0,0,0,57.678,40.668ZM29.329,14.1a1.582,1.582,0,0,1,1.58-1.58h8.127a1.58,1.58,0,1,1,0,3.16H30.91A1.582,1.582,0,0,1,29.329,14.1Zm2.911,6.212V17.937h5.464v2.37A23,23,0,0,0,32.241,20.311Z" transform="translate(0 -10.262)" fill="#0f0c75"/>
  <path id="XMLID_391_" d="M436.9,425.5a1.129,1.129,0,1,0,.8.331A1.135,1.135,0,0,0,436.9,425.5Z" transform="translate(-386.584 -378.632)" fill="#0f0c75"/>
  <path id="XMLID_394_" d="M172.382,144.609a17.51,17.51,0,1,0,17.51,17.51A17.529,17.529,0,0,0,172.382,144.609Zm0,32.762a15.252,15.252,0,1,1,15.252-15.252A15.269,15.269,0,0,1,172.382,177.371Z" transform="translate(-137.392 -129.445)" fill="#0f0c75"/>
  <path id="XMLID_397_" d="M270.154,219.742l-5.59,5.59a3.5,3.5,0,0,0-3.1,0l-2.5-2.5a1.129,1.129,0,0,0-1.6,1.6l2.5,2.5a3.507,3.507,0,1,0,6.291,0l5.426-5.426h0l.164-.164a1.129,1.129,0,0,0-1.6-1.6Zm-7.14,9.986a1.25,1.25,0,1,1,1.25-1.25A1.251,1.251,0,0,1,263.014,229.728Z" transform="translate(-228.024 -195.804)" fill="#fdc403"/>
  <path id="XMLID_398_" d="M399.829,289.86h-1.046a1.129,1.129,0,0,0,0,2.257h1.046a1.129,1.129,0,1,0,0-2.257Z" transform="translate(-352.771 -258.302)" fill="#0f0c75"/>
  <path id="XMLID_399_" d="M195.256,289.616h-1.046a1.129,1.129,0,1,0,0,2.257h1.046a1.129,1.129,0,1,0,0-2.257Z" transform="translate(-171.289 -258.085)" fill="#0f0c75"/>
  <path id="XMLID_400_" d="M301.252,186.122a1.129,1.129,0,0,0,1.129-1.129v-1.046a1.129,1.129,0,0,0-2.257,0v1.046A1.129,1.129,0,0,0,301.252,186.122Z" transform="translate(-266.248 -163.342)" fill="#0f0c75"/>
  <path id="XMLID_424_" d="M301.008,387.393a1.129,1.129,0,0,0-1.129,1.129v1.046a1.129,1.129,0,0,0,2.257,0v-1.046A1.129,1.129,0,0,0,301.008,387.393Z" transform="translate(-266.031 -344.826)" fill="#0f0c75"/>
  <path id="XMLID_425_" d="M1.129,351.44a1.129,1.129,0,1,0,.8,1.927,1.129,1.129,0,0,0-.8-1.927Z" transform="translate(0 -312.931)" fill="#0f0c75"/>
</svg>
