<svg xmlns="http://www.w3.org/2000/svg" xmlns:xlink="http://www.w3.org/1999/xlink" width="26" height="27" viewBox="0 0 26 27">
  <defs>
    <clipPath id="clip-Artboard_11">
      <rect width="26" height="27"/>
    </clipPath>
  </defs>
  <g id="Artboard_11" data-name="Artboard – 11" clip-path="url(#clip-Artboard_11)">
    <g id="Group_14552" data-name="Group 14552" transform="translate(-825.996 -423.3)">
      <path id="Path_12430" data-name="Path 12430" d="M934.234,508.5c0,.667,0,1.333,0,2a.367.367,0,0,1-.218.369q-2.136,1.133-4.267,2.276a.311.311,0,0,1-.349-.01q-2.128-1.344-4.261-2.679a.366.366,0,0,1-.2-.347q.008-1.839,0-3.678a.376.376,0,0,1,.221-.37q2.11-1.126,4.214-2.261a.342.342,0,0,1,.365,0q2.138,1.168,4.279,2.328a.362.362,0,0,1,.21.357C934.23,507.158,934.234,507.83,934.234,508.5Zm-8.808-1.768c-.006.068-.013.1-.013.137,0,1.012,0,2.023.006,3.035a.293.293,0,0,0,.118.208q1.826,1.17,3.659,2.327a.665.665,0,0,0,.115.042v-.193c0-1.059,0-2.118,0-3.177a.273.273,0,0,0-.163-.277c-.893-.5-1.782-1.005-2.673-1.508C926.137,507.133,925.8,506.942,925.426,506.735Zm4.4,5.8c.091-.043.149-.068.205-.1,1.184-.622,2.366-1.246,3.552-1.863a.263.263,0,0,0,.166-.273c-.005-1.094,0-2.188,0-3.282,0-.052-.006-.1-.011-.183-.317.169-.612.33-.912.482a.2.2,0,0,0-.122.208c.006.374,0,.749,0,1.124a.314.314,0,0,1-.165.311c-.334.181-.665.369-1,.546a.241.241,0,0,1-.38-.228c-.008-.279,0-.559,0-.838,0-.056-.007-.111-.013-.193-.088.044-.152.073-.213.107-.313.17-.623.348-.94.51a.265.265,0,0,0-.167.276c.006,1.064,0,2.128,0,3.193Zm1.052-4.712c-.064-.038-.093-.057-.123-.074-1.152-.631-2.31-1.253-3.453-1.9a.6.6,0,0,0-.722,0,8.323,8.323,0,0,1-.734.4c-.044.024-.084.054-.148.1l.578.327q1.59.9,3.183,1.8a.244.244,0,0,0,.194.026C930.055,508.28,930.452,508.055,930.878,507.818Zm-2.28-3.049c.023.031.028.045.037.05q1.889,1.041,3.779,2.079a.146.146,0,0,0,.114.017c.318-.168.633-.342.974-.529l-.383-.211q-1.7-.924-3.4-1.845a.277.277,0,0,0-.21-.033C929.2,504.443,928.908,504.606,928.6,504.769Zm3.04,4.111c.185-.1.34-.172.481-.266a.258.258,0,0,0,.1-.18c.01-.309.011-.619,0-.928a.265.265,0,0,0-.114-.189q-1.981-1.1-3.971-2.183a.21.21,0,0,0-.162-.022c-.168.08-.329.177-.506.276.055.035.089.06.125.079,1.255.68,2.507,1.365,3.768,2.034a.445.445,0,0,1,.284.472C931.625,508.261,931.637,508.551,931.637,508.88Z" transform="translate(-87.242 -69.602)" fill="#3b4b58" stroke="#3b4b58" stroke-width="0.3"/>
      <path id="Path_12431" data-name="Path 12431" d="M842.429,431.851h-2.4c.021.277.049.551.058.826.008.249-.07.322-.315.322h-5.6c-.275,0-.341-.06-.335-.337s.034-.532.053-.808h-2.392V444.3H842.4c0-.089.009-.176.014-.263a.217.217,0,0,1,.228-.225.226.226,0,0,1,.245.213,4.549,4.549,0,0,1,0,.57.209.209,0,0,1-.21.2,1.479,1.479,0,0,1-.16,0H831.378c-.332,0-.383-.051-.383-.38V431.733c0-.33.05-.38.384-.38.851,0,1.7,0,2.553,0a.331.331,0,0,0,.322-.16,2.412,2.412,0,0,1,.906-.815.248.248,0,0,0,.112-.158,1.578,1.578,0,0,1,1.271-1.379,1.681,1.681,0,0,1,2.1,1.364.3.3,0,0,0,.129.185,2.7,2.7,0,0,1,.941.857.3.3,0,0,0,.218.1c.875.007,1.749,0,2.624,0,.307,0,.364.058.365.365q0,.83,0,1.66c0,.272-.068.371-.25.367s-.242-.106-.242-.378C842.429,432.869,842.429,432.37,842.429,431.851Zm-2.86.653a2.485,2.485,0,0,0-.024-.275,1.935,1.935,0,0,0-1.172-1.469.335.335,0,0,1-.235-.334,1.209,1.209,0,0,0-2.411-.021.368.368,0,0,1-.246.366,1.984,1.984,0,0,0-.782.633,1.773,1.773,0,0,0-.375,1.1Z" transform="translate(0 0)" fill="#3b4b58" stroke="#3b4b58" stroke-width="0.3"/>
      <path id="Path_12432" data-name="Path 12432" d="M853.135,597.1c0,.273,0,.547,0,.82,0,.211-.081.29-.294.291q-.776,0-1.552,0c-.213,0-.29-.079-.29-.293q0-.838,0-1.676c0-.205.076-.282.279-.284q.785,0,1.569,0a.253.253,0,0,1,.288.284c0,.285,0,.571,0,.856Zm-1.651-.026c0,.172,0,.345,0,.517,0,.1.034.136.134.135.3,0,.594,0,.891,0,.095,0,.14-.025.139-.13,0-.338,0-.677,0-1.015,0-.1-.032-.14-.133-.138-.3,0-.594,0-.891,0-.113,0-.143.049-.14.151C851.488,596.758,851.485,596.918,851.485,597.078Z" transform="translate(-18.574 -155.23)" fill="#3b4b58" stroke="#3b4b58" stroke-width="0.3"/>
      <path id="Path_12433" data-name="Path 12433" d="M851,505.745c0-.279,0-.559,0-.838,0-.2.078-.287.278-.288q.785-.006,1.57,0c.209,0,.287.085.287.3q0,.83,0,1.659c0,.216-.075.292-.289.294q-.785,0-1.57,0c-.2,0-.274-.078-.276-.287C851,506.3,851,506.024,851,505.745Zm1.647-.027c0-.166,0-.333,0-.5,0-.1-.025-.141-.13-.14q-.445.007-.89,0c-.11,0-.145.042-.143.147,0,.332,0,.665,0,1,0,.1.026.141.131.139.3,0,.594-.005.89,0,.111,0,.146-.042.142-.147C852.643,506.051,852.647,505.884,852.647,505.718Z" transform="translate(-18.575 -70.407)" fill="#3b4b58" stroke="#3b4b58" stroke-width="0.3"/>
      <path id="Path_12434" data-name="Path 12434" d="M850.98,551.211c0-.28,0-.559,0-.839,0-.2.079-.287.279-.288q.785-.006,1.57,0c.2,0,.286.084.287.282q0,.848,0,1.7c0,.194-.079.273-.272.274q-.794.006-1.588,0c-.2,0-.273-.077-.275-.287,0-.28,0-.559,0-.839Zm1.648.646c0-.41,0-.79-.005-1.169a.16.16,0,0,0-.112-.109q-.463-.014-.927,0a.161.161,0,0,0-.11.112c-.009.351-.008.7,0,1.052,0,.039.061.109.1.109C851.911,551.86,852.255,551.856,852.629,551.856Z" transform="translate(-18.557 -112.626)" fill="#3b4b58" stroke="#3b4b58" stroke-width="0.3"/>
      <path id="Path_12435" data-name="Path 12435" d="M888.969,516.933c.564,0,1.129,0,1.693,0,.229,0,.363.177.249.341a.392.392,0,0,1-.281.133c-.778.011-1.557.006-2.335.006-.327,0-.654,0-.98,0-.216,0-.321-.087-.316-.249s.1-.232.313-.232h1.658Z" transform="translate(-52.004 -81.844)" fill="#3b4b58" stroke="#3b4b58" stroke-width="0.3"/>
      <path id="Path_12436" data-name="Path 12436" d="M886.49,608.7c-.505,0-1.01,0-1.516,0-.2,0-.31-.086-.308-.239s.117-.245.311-.245q1.525,0,3.049,0c.2,0,.293.083.3.233s-.1.25-.3.251C887.512,608.7,887,608.7,886.49,608.7Z" transform="translate(-49.838 -166.606)" fill="#3b4b58" stroke="#3b4b58" stroke-width="0.3"/>
      <path id="Path_12437" data-name="Path 12437" d="M887.9,563.236c-.321,0-.642,0-.963,0-.181,0-.287-.1-.285-.246s.1-.233.276-.234q.971,0,1.943,0c.176,0,.272.089.273.237s-.1.244-.282.245c-.321,0-.642,0-.963,0Z" transform="translate(-51.678 -124.392)" fill="#3b4b58" stroke="#3b4b58" stroke-width="0.3"/>
      <path id="Path_12447" data-name="Path 12447" d="M900.954,442.808a.619.619,0,0,1,.618-.613.617.617,0,1,1-.618.613Zm.911,0a.3.3,0,0,0-.3-.292.3.3,0,0,0-.3.305.3.3,0,0,0,.3.292A.29.29,0,0,0,901.865,442.807Z" transform="translate(-64.637 -12.111)" fill="#3b4b58" stroke="#3b4b58" stroke-width="0.3"/>
      <path id="Path_12448" data-name="Path 12448" d="M908.645,449.52a.444.444,0,0,1-.452.468.467.467,0,0,1-.462-.448.461.461,0,0,1,.457-.468A.455.455,0,0,1,908.645,449.52Z" transform="translate(-71.256 -18.829)" fill="#3b4b58" stroke="#3b4b58" stroke-width="0.3"/>
    </g>
  </g>
</svg>
