<svg xmlns="http://www.w3.org/2000/svg" xmlns:xlink="http://www.w3.org/1999/xlink" width="86" height="90" viewBox="0 0 86 90">
  <defs>
    <clipPath id="clip-Artboard_4">
      <rect width="86" height="90"/>
    </clipPath>
  </defs>
  <g id="Artboard_4" data-name="Artboard – 4" clip-path="url(#clip-Artboard_4)">
    <g id="Group_14552" data-name="Group 14552" transform="translate(-519.5 -346)">
      <g id="bed" transform="translate(548.82 381.503)">
        <g id="Group_12717" data-name="Group 12717" transform="translate(0 0)">
          <g id="Group_12716" data-name="Group 12716">
            <path id="Path_12296" data-name="Path 12296" d="M43.211,81.193H45.93a.543.543,0,0,1-.528-.675l.338-1.352a1.629,1.629,0,0,1,1.583-1.236h3.5a1.634,1.634,0,0,1,1.632,1.632v1.088a.544.544,0,0,1-.544.544h3.263a.544.544,0,0,1-.544-.544V79.562a1.634,1.634,0,0,1,1.632-1.632h3.5a1.629,1.629,0,0,1,1.583,1.236l.338,1.352a.543.543,0,0,1-.528.675h2.719a.544.544,0,0,0,.544-.544V77.386A2.723,2.723,0,0,0,61.7,74.667H45.386a2.723,2.723,0,0,0-2.719,2.719v3.263A.544.544,0,0,0,43.211,81.193Z" transform="translate(-40.492 -74.667)" fill="#0f0c75"/>
            <path id="Path_12297" data-name="Path 12297" d="M23.386,224H2.719A2.723,2.723,0,0,0,0,226.719v7.614a.544.544,0,1,0,1.088,0V232.7h23.93v1.632a.544.544,0,1,0,1.088,0v-7.614A2.723,2.723,0,0,0,23.386,224Zm1.632,7.614H1.088v-1.088h23.93v1.088Z" transform="translate(0 -216.386)" fill="#0f0c75"/>
          </g>
        </g>
      </g>
    </g>
  </g>
</svg>
