<svg xmlns="http://www.w3.org/2000/svg" xmlns:xlink="http://www.w3.org/1999/xlink" width="27" height="26" viewBox="0 0 27 26">
  <defs>
    <clipPath id="clip-_22">
      <rect width="27" height="26"/>
    </clipPath>
  </defs>
  <g id="_22" data-name="22" clip-path="url(#clip-_22)">
    <g id="Group_14563" data-name="Group 14563" transform="translate(5.385 5.078)">
      <g id="Group_13907" data-name="Group 13907">
        <path id="Icon_feather-phone-call" data-name="Icon feather-phone-call" d="M13.222,4.528a3.837,3.837,0,0,1,3.069,2.99M13.222,1.5A6.906,6.906,0,0,1,19.4,7.511m-.777,6.041v2.271a1.5,1.5,0,0,1-.5,1.122,1.58,1.58,0,0,1-1.191.392,15.641,15.641,0,0,1-6.706-2.324A14.964,14.964,0,0,1,5.56,10.471,14.735,14.735,0,0,1,3.174,3.907a1.49,1.49,0,0,1,.4-1.157A1.573,1.573,0,0,1,4.72,2.257H7.052a1.542,1.542,0,0,1,1.554,1.3A9.516,9.516,0,0,0,9.15,5.687a1.486,1.486,0,0,1-.35,1.6l-.987.961a12.278,12.278,0,0,0,4.662,4.542l.987-.961a1.584,1.584,0,0,1,1.64-.341,10.194,10.194,0,0,0,2.184.53A1.526,1.526,0,0,1,18.622,13.552Z" transform="translate(-3.168 -1.5)" fill="none" stroke="#0f0c75" stroke-linecap="round" stroke-linejoin="round" stroke-width="1.5"/>
        <path id="Path_12730" data-name="Path 12730" d="M311.879,201.3a3.44,3.44,0,0,1,1.9.912,6.678,6.678,0,0,1,1.243,2.28" transform="translate(-301.783 -198.266)" fill="none" stroke="#fdc403" stroke-linecap="round" stroke-linejoin="round" stroke-width="1.7"/>
      </g>
    </g>
  </g>
</svg>
