<svg xmlns="http://www.w3.org/2000/svg" xmlns:xlink="http://www.w3.org/1999/xlink" width="45" height="54" viewBox="0 0 45 54">
  <defs>
    <clipPath id="clip-Artboard_4">
      <rect width="45" height="54"/>
    </clipPath>
  </defs>
  <g id="Artboard_4" data-name="Artboard – 4" clip-path="url(#clip-Artboard_4)">
    <path id="Icon_ionic-ios-call" data-name="Icon ionic-ios-call" d="M26.007,21.851a18.61,18.61,0,0,0-3.888-2.6c-1.165-.559-1.592-.548-2.417.046-.686.5-1.131.957-1.921.784a11.458,11.458,0,0,1-3.859-2.855,11.376,11.376,0,0,1-2.855-3.859c-.167-.8.294-1.234.784-1.921.594-.825.611-1.252.046-2.417A18.243,18.243,0,0,0,9.3,5.141c-.848-.848-1.038-.663-1.505-.5a8.567,8.567,0,0,0-1.379.733A4.159,4.159,0,0,0,4.758,7.125c-.329.709-.709,2.03,1.229,5.48a30.576,30.576,0,0,0,5.376,7.17h0l.006.006.006.006h0a30.7,30.7,0,0,0,7.17,5.376c3.449,1.938,4.77,1.557,5.48,1.229a4.088,4.088,0,0,0,1.748-1.655,8.567,8.567,0,0,0,.733-1.379C26.67,22.889,26.861,22.7,26.007,21.851Z" transform="translate(6.932 11.42)" fill="none" stroke="#0f0c75" stroke-width="2"/>
  </g>
</svg>
