<svg xmlns="http://www.w3.org/2000/svg" xmlns:xlink="http://www.w3.org/1999/xlink" width="52" height="36" viewBox="0 0 52 36">
  <defs>
    <clipPath id="clip-_55">
      <rect width="52" height="36"/>
    </clipPath>
  </defs>
  <g id="_55" data-name="55" clip-path="url(#clip-_55)">
    <g id="credit-card" transform="translate(10 1.757)">
      <g id="Group_13921" data-name="Group 13921" transform="translate(0 0.243)">
        <g id="Group_13920" data-name="Group 13920">
          <path id="Path_12727" data-name="Path 12727" d="M32.042,11.818l-3.6-9.373A3.438,3.438,0,0,0,23.992.474L23.915.5,5.9,7.972A3.422,3.422,0,0,0,4,12.351l.5,1.322H3.358A3.362,3.362,0,0,0,0,17.031V29.119a3.362,3.362,0,0,0,3.358,3.358H26.191a3.362,3.362,0,0,0,3.358-3.358V17.031a3.3,3.3,0,0,0-.048-.544l.624-.253A3.451,3.451,0,0,0,32.042,11.818ZM3.358,14.748H26.191a2.28,2.28,0,0,1,2.27,2.149H1.088A2.28,2.28,0,0,1,3.358,14.748Zm5.4-3.236,3.591-1.8.738,1.847L9.5,13.358ZM28.474,29.119A2.286,2.286,0,0,1,26.191,31.4H3.358a2.286,2.286,0,0,1-2.283-2.283v-6.85h27.4Zm0-7.924H1.074V17.971h27.4Zm1.247-5.953-.561.227a3.359,3.359,0,0,0-2.969-1.8H11.267L14.01,12.3a.537.537,0,0,0,.259-.68L13.129,8.774a.537.537,0,0,0-.7-.3l-.041.018L7.835,10.772a.537.537,0,0,0-.258.68l.889,2.221H5.641L5,11.977A2.352,2.352,0,0,1,6.312,8.968L24.326,1.5a2.361,2.361,0,0,1,3.085,1.276l.023.057,3.6,9.373A2.372,2.372,0,0,1,29.721,15.242Z" transform="translate(0 -0.243)" fill="#0f0c75"/>
          <path id="Path_12728" data-name="Path 12728" d="M265.484,358.24a3.224,3.224,0,0,0,3.239,0,3.223,3.223,0,1,0,0-5.575,3.223,3.223,0,1,0-3.239,5.575Zm4.137-4.805a2.149,2.149,0,1,1,0,4.036A3.211,3.211,0,0,0,269.621,353.435Zm-.9.611a2.11,2.11,0,0,1,0,2.813A2.11,2.11,0,0,1,268.723,354.047Zm-1.612-.742a2.127,2.127,0,0,1,.713.131,3.211,3.211,0,0,0,0,4.036,2.127,2.127,0,0,1-.713.131,2.149,2.149,0,1,1,0-4.3Z" transform="translate(-246.158 -328.591)" fill="#fdc403"/>
          <rect id="Rectangle_5109" data-name="Rectangle 5109" width="1.074" height="5.609" transform="translate(23.099 12.069) rotate(-113.966)" fill="#0f0c75"/>
          <rect id="Rectangle_5110" data-name="Rectangle 5110" width="8.153" height="1.074" transform="matrix(0.908, -0.419, 0.419, 0.908, 19.241, 9.952)" fill="#0f0c75"/>
        </g>
      </g>
    </g>
  </g>
</svg>
