<svg xmlns="http://www.w3.org/2000/svg" xmlns:xlink="http://www.w3.org/1999/xlink" width="53" height="47" viewBox="0 0 53 47">
  <defs>
    <clipPath id="clip-_2">
      <rect width="53" height="47"/>
    </clipPath>
  </defs>
  <g id="_2" data-name="2" clip-path="url(#clip-_2)">
    <g id="Group_14554" data-name="Group 14554" transform="translate(7 4)">
      <path id="Path_12242" data-name="Path 12242" d="M41.333,10H29.717L25.828,3.333h.705L39.076,8.615a.667.667,0,1,0,.517-1.229L26.927,2.052A.661.661,0,0,0,26.667,2H17.333a.661.661,0,0,0-.259.052L4.408,7.385A.667.667,0,0,0,4,8v2H2.667A.667.667,0,0,0,2,10.667v2.667A.667.667,0,0,0,2.667,14v3.333a3.323,3.323,0,0,0,6,1.979,3.3,3.3,0,0,0,5.333,0,3.3,3.3,0,0,0,5.333,0,3.3,3.3,0,0,0,5.333,0,3.3,3.3,0,0,0,5.333,0,3.3,3.3,0,0,0,5.333,0A3.321,3.321,0,0,0,38,20.667v20H20.333v-14A.667.667,0,0,0,19.667,26h-11A.667.667,0,0,0,8,26.667v14H6V22.572a.667.667,0,1,0-1.333,0V41.333A.667.667,0,0,0,5.333,42H38.667a.667.667,0,0,0,.667-.667V20.384a3.333,3.333,0,0,0,2-3.051V16A.667.667,0,1,0,40,16v1.333a2,2,0,1,1-4,0V14h5.333A.667.667,0,0,0,42,13.333V10.667A.667.667,0,0,0,41.333,10Zm-32,30.667V27.333H19V40.667ZM24.284,3.333,28.173,10H15.827l3.889-6.667ZM5.333,8.443,17.467,3.333h.7L14.283,10H5.333ZM6,19.333a2,2,0,0,1-2-2V14H8v3.333A2,2,0,0,1,6,19.333Zm5.333,0a2,2,0,0,1-2-2V14h4v3.333A2,2,0,0,1,11.333,19.333Zm5.333,0a2,2,0,0,1-2-2V14h4v3.333A2,2,0,0,1,16.667,19.333Zm5.333,0a2,2,0,0,1-2-2V14h4v3.333A2,2,0,0,1,22,19.333Zm5.333,0a2,2,0,0,1-2-2V14h4v3.333A2,2,0,0,1,27.333,19.333Zm7.333-2a2,2,0,0,1-4,0V14h4Zm6-4.667H3.333V11.333H40.667Z" transform="translate(-2 -2)" fill="#0f0c75"/>
      <path id="Path_12243" data-name="Path 12243" d="M39.666,32a3.337,3.337,0,0,0-3.333,3.333V36h-2a.667.667,0,0,0-.667.629l-.667,12a.667.667,0,0,0,.667.7h12a.667.667,0,0,0,.667-.7l-.222-4a.668.668,0,0,0-1.333.075l.184,3.3H34.371l.593-10.667h1.369v2a.667.667,0,0,0,1.333,0v-2h4v2a.667.667,0,0,0,1.333,0v-2h1.369l.261,4.7a.668.668,0,0,0,1.333-.075l-.3-5.333A.667.667,0,0,0,45,36H43v-.667A3.337,3.337,0,0,0,39.666,32Zm-2,4v-.667a2,2,0,1,1,4,0V36Z" transform="translate(-12.333 -12)" fill="#fdc403"/>
      <path id="Path_12244" data-name="Path 12244" d="M41.667,45a2.667,2.667,0,1,0,2.667,2.667A2.667,2.667,0,0,0,41.667,45Zm0,4A1.333,1.333,0,1,1,43,47.667,1.333,1.333,0,0,1,41.667,49Z" transform="translate(-14.333 -16.333)" fill="#0f0c75"/>
    </g>
  </g>
</svg>
