<svg id="Group_14549" data-name="Group 14549" xmlns="http://www.w3.org/2000/svg" width="55.469" height="55.473" viewBox="0 0 55.469 55.473">
  <g id="profit">
    <path id="Path_9002" data-name="Path 9002" d="M207.583,348.167a1.083,1.083,0,1,0-1.083-1.083A1.084,1.084,0,0,0,207.583,348.167Zm0,0" transform="translate(-184.181 -308.513)" fill="#0f0c75"/>
    <path id="Path_9003" data-name="Path 9003" d="M.817,42.154l13,13a1.083,1.083,0,0,0,1.532,0L22.5,48a1.083,1.083,0,0,0,0-1.532l-.317-.317H37.8a5.405,5.405,0,0,0,3.69-1.451L54.636,32.385a4.183,4.183,0,0,0-5.063-6.612l-2.918,1.915A18.218,18.218,0,0,0,38.2,12.732,3.256,3.256,0,0,0,36.763,7.5c-.053-.018-.107-.033-.16-.05l2.789-5.01A1.083,1.083,0,0,0,38.748.876a22.215,22.215,0,0,0-12.356,0,1.083,1.083,0,0,0-.644,1.568l2.789,5.01-.163.051a3.25,3.25,0,0,0-1.43,5.227c-4.959,2.861-8.459,9.189-8.459,15,0,.159,0,.315.009.471a13.314,13.314,0,0,0-5.262,2.822L9.94,33.91,9.5,33.471a1.083,1.083,0,0,0-1.532,0L.817,40.622a1.083,1.083,0,0,0,0,1.532ZM28.326,2.62a20.094,20.094,0,0,1,8.488,0L34.4,6.957a13.21,13.21,0,0,0-3.659,0Zm.725,6.943a11.211,11.211,0,0,1,7.035,0,1.084,1.084,0,0,1-.271,2.112,10.6,10.6,0,0,0-6.491,0h0a1.083,1.083,0,0,1-.273-2.109Zm.6,4.285a8.454,8.454,0,0,1,5.708-.046c5.034,1.731,9.129,7.982,9.129,13.934a10.428,10.428,0,0,1-.094,1.435l-5.208,3.417a4.308,4.308,0,0,0-3.365-1.6c-2.651-.065-2.331.128-4.694,0-.532,0-.772-.347-1.147-.59A13.292,13.292,0,0,0,20.653,27.8c0-.023,0-.045,0-.069C20.652,21.867,24.689,15.638,29.65,13.848ZM14.659,32.66a11.141,11.141,0,0,1,14.019-.529,3.842,3.842,0,0,0,2.447,1.023H35.82a2.167,2.167,0,1,1,0,4.334H28.236a1.083,1.083,0,0,0,0,2.167H35.82a4.33,4.33,0,0,0,4.27-5.069L50.73,27.605a2.016,2.016,0,0,1,2.428,3.2L40.014,43.119a3.241,3.241,0,0,1-2.212.869H20.017l-8.542-8.542ZM8.734,35.769,20.2,47.238l-5.619,5.619L3.116,41.388Zm0,0" transform="translate(-0.5)" fill="#0f0c75"/>
  </g>
  <path id="Path_12802" data-name="Path 12802" d="M349.64,257.12h-1.22a1.166,1.166,0,0,1-1.165-1.165.68.68,0,1,0-1.36,0,2.528,2.528,0,0,0,2.455,2.523v1.505a.68.68,0,0,0,1.36,0v-1.505a2.528,2.528,0,0,0,2.455-2.523v-.941a2,2,0,0,0-1.389-1.912l-3.072-1a.648.648,0,0,1-.449-.618v-1.348a.947.947,0,0,1,.946-.946h1.658a.947.947,0,0,1,.946.946.68.68,0,0,0,1.36,0,2.309,2.309,0,0,0-2.306-2.306h-.149v-1.5a.68.68,0,1,0-1.36,0v1.5H348.2a2.309,2.309,0,0,0-2.306,2.306v1.348a2,2,0,0,0,1.389,1.911l3.072,1a.648.648,0,0,1,.449.618v.941A1.166,1.166,0,0,1,349.64,257.12Z" transform="translate(-317.236 -230.98)" fill="#fdc403"/>
</svg>
