<svg xmlns="http://www.w3.org/2000/svg" xmlns:xlink="http://www.w3.org/1999/xlink" width="113" height="54" viewBox="0 0 113 54">
  <defs>
    <clipPath id="clip-Artboard_5">
      <rect width="113" height="54"/>
    </clipPath>
  </defs>
  <g id="Artboard_5" data-name="Artboard – 5" clip-path="url(#clip-Artboard_5)">
    <g id="Group_14551" data-name="Group 14551" transform="translate(-652 -221.079)">
      <g id="moving-truck" transform="translate(686.151 231.158)">
        <g id="Group_12733" data-name="Group 12733" transform="translate(18.484 7.452)">
          <g id="Group_12732" data-name="Group 12732" transform="translate(0 0)">
            <path id="Path_12288" data-name="Path 12288" d="M218.488,178.369l-4.361-3.239a.857.857,0,0,0-1.368.688v1.069h-2.77a.858.858,0,0,0-.857.857v2.625a.858.858,0,0,0,.857.857h2.77V182.3a.856.856,0,0,0,1.368.688l4.361-3.239a.857.857,0,0,0,0-1.376Zm-4.441,3.069v-.856a.644.644,0,0,0-.644-.644H210.42v-1.762H213.4a.644.644,0,0,0,.644-.644v-.856l3.206,2.381Z" transform="translate(-209.131 -174.961)" fill="#fdc403"/>
          </g>
        </g>
        <g id="Group_12735" data-name="Group 12735" transform="translate(32.526 10.212)">
          <g id="Group_12734" data-name="Group 12734">
            <path id="Path_12289" data-name="Path 12289" d="M377.958,210.334l-2.607-3.737a.936.936,0,0,0-.767-.4h-5.572a.937.937,0,0,0-.936.936v5.544a.937.937,0,0,0,.936.936h8.18a.937.937,0,0,0,.936-.936V210.87A.93.93,0,0,0,377.958,210.334Zm-1.121,1.989h-7.473v-4.838H374.4l2.438,3.495Z" transform="translate(-368.076 -206.197)" fill="#0f0c75"/>
          </g>
        </g>
        <g id="Group_12737" data-name="Group 12737" transform="translate(0 0)">
          <g id="Group_12736" data-name="Group 12736" transform="translate(0 0)">
            <path id="Path_12290" data-name="Path 12290" d="M45.152,114.4v-9.231a2.544,2.544,0,0,0-.46-1.463l-3.106-4.452a2.558,2.558,0,0,0-2.1-1.094H37.971a.644.644,0,0,0,0,1.289H39.49a1.268,1.268,0,0,1,1.04.542l3.106,4.452a1.261,1.261,0,0,1,.228.725v8.181h-2.2c-.016-.031-.032-.061-.049-.092l-.017-.032q-.045-.083-.094-.164l-.034-.054c-.021-.034-.043-.067-.065-.1l-.05-.075-.045-.063a4.471,4.471,0,0,0-3.247-1.859l-.123-.009-.07,0c-.066,0-.132-.005-.2-.005s-.133,0-.2.005l-.07,0-.123.009a4.471,4.471,0,0,0-3.247,1.859l-.045.063-.051.075q-.033.05-.064.1l-.034.055q-.049.081-.094.163l-.017.032c-.016.03-.033.061-.049.092H31.5V99.45H40.86c.356,0-3.359-.288-3.359-.644s.826-.644.47-.644H31.5V91.837a1.226,1.226,0,0,0-1.224-1.224H1.144A1.226,1.226,0,0,0-.08,91.837v14.237c0,.327-.078,3.989.506,4.425a.159.159,0,0,0,.138.017.306.306,0,0,0,.164-.052c.657-.291.48-.022.48-.357V91.9h29V113.35H13.265c-.015-.03-.031-.059-.047-.089l-.019-.035q-.045-.082-.093-.162l-.036-.057-.062-.1-.052-.077-.042-.059a4.471,4.471,0,0,0-3.249-1.862l-.123-.009-.07,0c-.066,0-.132-.005-.2-.005s-.133,0-.2.005l-.07,0-.123.009a4.471,4.471,0,0,0-3.248,1.861l-.043.06-.052.077-.063.1-.035.057q-.048.08-.093.162l-.019.035c-.016.03-.032.059-.047.089H1.208v-3.244c0-.356.127-4.8-.644-4.032s-.644.463-.644,4.032v3.308a1.226,1.226,0,0,0,1.224,1.224h.809v1.144a.957.957,0,0,0,.955.955h2.11a4.471,4.471,0,0,0,8.509,0H33.422a4.471,4.471,0,0,0,8.509,0h.724a2.5,2.5,0,0,0,2.5-2.5Zm-40.295.262c0,.024-.007.048-.01.072-.006.045-.012.091-.017.137q0,.037-.008.075c0,.048-.008.1-.011.144,0,.022,0,.044,0,.066,0,.07-.005.14-.005.21q0,.042,0,.085H3.242v-.81H4.861C4.859,114.647,4.858,114.655,4.857,114.662Zm7.595.857c0,.039-.005.079-.009.118,0,.011,0,.022,0,.033,0,.046-.01.092-.017.137l0,.014c-.006.043-.014.086-.022.129a3.182,3.182,0,0,1-6.255,0c-.008-.043-.016-.086-.022-.129l0-.014c-.006-.046-.012-.092-.017-.137,0-.011,0-.022,0-.033,0-.04-.007-.079-.009-.118s0-.1,0-.155,0-.1,0-.155c0-.018,0-.035,0-.053,0-.034,0-.067.008-.1s0-.042.007-.064.007-.059.011-.088.007-.046.011-.069.009-.053.014-.08.01-.049.015-.073.011-.049.017-.073.013-.051.02-.077.013-.045.019-.068.015-.052.024-.078.015-.045.023-.067.017-.049.026-.074l.017-.044q.037-.094.079-.185L6.4,114c.031-.065.065-.128.1-.19l.022-.038a3.158,3.158,0,0,1,.258-.377h0a3.21,3.21,0,0,1,2.231-1.2l.039,0c.074-.005.149-.009.224-.009s.149,0,.224.009l.039,0a3.21,3.21,0,0,1,2.231,1.2h0a3.158,3.158,0,0,1,.258.377l.022.038c.035.062.069.125.1.19l.01.022q.043.091.079.185l.017.044c.009.025.018.049.026.074s.015.044.023.067.016.052.024.078.013.045.019.068.014.051.02.077.011.048.017.073.011.049.015.073.01.053.014.08.008.046.011.069.008.058.011.088.005.042.007.064.005.067.008.1c0,.018,0,.035,0,.053,0,.052,0,.1,0,.155S12.454,115.468,12.452,115.519Zm20.809-.857c0,.024-.007.048-.01.072-.006.045-.012.091-.017.137,0,.025-.005.05-.008.074,0,.048-.008.1-.011.144,0,.022,0,.044,0,.066,0,.07-.005.14-.005.21q0,.042,0,.085H13.744c0-.028,0-.057,0-.085,0-.07,0-.14-.005-.21,0-.022,0-.044,0-.066,0-.048-.006-.1-.011-.144q0-.037-.008-.075c-.005-.046-.011-.091-.017-.137,0-.024-.007-.048-.01-.072l0-.024H33.264C33.263,114.647,33.262,114.655,33.261,114.662Zm7.595.857c0,.039-.005.079-.009.118,0,.011,0,.022,0,.033,0,.046-.01.092-.017.137l0,.014c-.006.043-.014.086-.022.129a3.182,3.182,0,0,1-6.255,0c-.008-.043-.016-.087-.022-.13l0-.016c-.006-.045-.012-.09-.016-.136,0-.012,0-.024,0-.035,0-.039-.007-.077-.008-.116s0-.1,0-.155,0-.1,0-.155c0-.018,0-.035,0-.053,0-.034,0-.067.008-.1s0-.042.007-.063.007-.059.011-.088.007-.046.011-.068.009-.054.014-.081.01-.048.015-.072.011-.05.017-.074.013-.05.019-.075l.02-.07c.007-.025.015-.05.023-.075l.024-.07c.008-.024.017-.047.025-.071l.018-.046c.024-.062.05-.122.078-.182l.011-.025c.031-.064.064-.127.1-.189l.023-.039a3.175,3.175,0,0,1,.256-.376v0a3.21,3.21,0,0,1,2.231-1.2l.039,0c.074-.005.149-.009.224-.009s.149,0,.224.009l.039,0a3.21,3.21,0,0,1,2.231,1.2v0a3.171,3.171,0,0,1,.256.375l.023.039c.035.062.068.124.1.189l.011.025q.042.089.078.182l.018.046c.009.024.017.047.025.071l.024.07c.008.025.016.05.023.075s.014.047.02.07.013.05.019.074.012.05.017.075.01.048.015.072.01.054.014.081.008.045.011.068.008.059.011.089.005.042.007.063.006.068.008.1c0,.017,0,.035,0,.052,0,.052,0,.1,0,.155S40.858,115.468,40.855,115.519Zm1.8-.07h-.508q0-.042,0-.085c0-.07,0-.14-.005-.21,0-.022,0-.044,0-.066,0-.048-.006-.1-.011-.144q0-.037-.008-.074c-.005-.046-.011-.091-.017-.137,0-.024-.007-.048-.01-.072l0-.024H43.8A1.212,1.212,0,0,1,42.655,115.449Z" transform="translate(0.088 -90.613)" fill="#0f0c75"/>
          </g>
        </g>
        <g id="Group_12739" data-name="Group 12739" transform="translate(35.699 22.686)">
          <g id="Group_12738" data-name="Group 12738">
            <path id="Path_12291" data-name="Path 12291" d="M406.052,347.392a2.066,2.066,0,1,0,2.066,2.066A2.068,2.068,0,0,0,406.052,347.392Zm0,2.843a.777.777,0,1,1,.777-.777A.778.778,0,0,1,406.052,350.235Z" transform="translate(-403.986 -347.392)" fill="#0f0c75"/>
          </g>
        </g>
        <g id="Group_12741" data-name="Group 12741" transform="translate(7.295 22.686)">
          <g id="Group_12740" data-name="Group 12740">
            <path id="Path_12292" data-name="Path 12292" d="M84.554,347.392a2.066,2.066,0,1,0,2.066,2.066A2.068,2.068,0,0,0,84.554,347.392Zm0,2.843a.777.777,0,1,1,.777-.777A.778.778,0,0,1,84.554,350.235Z" transform="translate(-82.488 -347.392)" fill="#0f0c75"/>
          </g>
        </g>
        <g id="Group_12743" data-name="Group 12743" transform="translate(3.898 5.341)">
          <g id="Group_12742" data-name="Group 12742" transform="translate(0 0)">
            <path id="Path_12293" data-name="Path 12293" d="M55.893,156.3l-5.388-5.062a.644.644,0,0,0-.882,0L44.235,156.3a.644.644,0,1,0,.882.939l4.947-4.647,4.947,4.647a.644.644,0,1,0,.882-.939Z" transform="translate(-44.032 -151.068)" fill="#0f0c75"/>
          </g>
        </g>
        <g id="Group_12745" data-name="Group 12745" transform="translate(5.567 8.022)">
          <g id="Group_12744" data-name="Group 12744">
            <path id="Path_12294" data-name="Path 12294" d="M71.315,184.8l-3.3-3.1a1.067,1.067,0,0,0-1.459,0l-3.3,3.1a1.069,1.069,0,0,0-.336.777v4.507a1.066,1.066,0,0,0,1.065,1.065h6.6a1.066,1.066,0,0,0,1.065-1.065v-4.507A1.069,1.069,0,0,0,71.315,184.8Zm-3.555,5.06h-.945v-2.234h.945Zm2.6,0H69.049v-2.642a.881.881,0,0,0-.88-.88H66.407a.881.881,0,0,0-.88.88v2.642H64.213v-4.187l3.075-2.888,3.075,2.888Z" transform="translate(-62.924 -181.409)" fill="#0f0c75"/>
          </g>
        </g>
      </g>
      <path id="Path_13094" data-name="Path 13094" d="M-15700.088,613h38.453" transform="translate(16355.551 -355.295)" fill="none" stroke="#0f0c75" stroke-linecap="round" stroke-width="1" stroke-dasharray="5"/>
      <path id="Path_13095" data-name="Path 13095" d="M-15700.088,613h28.307" transform="translate(16425.602 -355.295)" fill="none" stroke="#0f0c75" stroke-linecap="round" stroke-width="1" stroke-dasharray="5"/>
      <g id="Ellipse_476" data-name="Ellipse 476" transform="translate(655 254)" fill="#fafafa" stroke="#0f0c75" stroke-width="1">
        <ellipse cx="4" cy="3.5" rx="4" ry="3.5" stroke="none"/>
        <ellipse cx="4" cy="3.5" rx="3.5" ry="3" fill="none"/>
      </g>
      <g id="Group_14175" data-name="Group 14175" transform="translate(749.451 241.199)">
        <path id="Path_12233" data-name="Path 12233" d="M599.945,0a6.2,6.2,0,0,0-6.2,6.2c0,3.259,5.508,10.72,5.745,11.038a.564.564,0,0,0,.9,0c.233-.318,5.741-7.78,5.741-11.038A6.2,6.2,0,0,0,599.945,0Zm0,15.938c-1.746-2.447-5.069-7.552-5.069-9.743a5.069,5.069,0,0,1,10.137,0C605.014,8.384,601.691,13.49,599.945,15.938Zm0,0" transform="translate(-593.75)" fill="#0f0c75"/>
        <path id="Path_12234" data-name="Path 12234" d="M675.254,78.125a3.379,3.379,0,1,0,3.379,3.379A3.38,3.38,0,0,0,675.254,78.125Zm0,5.632a2.253,2.253,0,1,1,2.253-2.253A2.253,2.253,0,0,1,675.254,83.757Zm0,0" transform="translate(-669.059 -75.309)" fill="#0f0c75"/>
      </g>
    </g>
  </g>
</svg>
