<svg xmlns="http://www.w3.org/2000/svg" xmlns:xlink="http://www.w3.org/1999/xlink" width="63" height="48" viewBox="0 0 63 48">
  <defs>
    <clipPath id="clip-Artboard_6">
      <rect width="63" height="48"/>
    </clipPath>
  </defs>
  <g id="Artboard_6" data-name="Artboard – 6" clip-path="url(#clip-Artboard_6)">
    <g id="Group_14555" data-name="Group 14555" transform="translate(11.316 4.47)">
      <path id="global-network" d="M37.092,10.983a3.378,3.378,0,0,0-4.295-5.2A19.9,19.9,0,0,0,8.444,4.576a4.2,4.2,0,0,0-5.707,6.157A19.714,19.714,0,0,0,3.249,31.6a3.131,3.131,0,0,0,4.187,4.585,19.9,19.9,0,0,0,26.436-1.448,19.713,19.713,0,0,0,3.22-23.749ZM30.773,24.816c.133-1.139.21-2.3.23-3.475h7.453c-.364,1.829-2.418,3.582-5.768,4.9a3.4,3.4,0,0,0-1.914-1.424Zm-3.152,3.243a2.215,2.215,0,1,1,2.215,2.2A2.212,2.212,0,0,1,27.621,28.059Zm-1.165-.188a42.065,42.065,0,0,1-6.028.5v-7.03h9.4c-.019,1.13-.094,2.254-.223,3.351a3.385,3.385,0,0,0-3.153,3.179ZM9.468,16.929a.585.585,0,0,0,.656-.505c.1-.764.225-1.513.376-2.245a39.839,39.839,0,0,1,8.758-1.038v7.03h-9.4c.008-.45.023-.9.048-1.345a.585.585,0,0,0-1.169-.066c-.026.466-.043.938-.05,1.411H1.232c.348-1.715,2.208-3.393,5.224-4.678a24.324,24.324,0,0,1,2.784-.98q-.159.861-.277,1.76a.585.585,0,0,0,.505.656ZM31,20.17a34.091,34.091,0,0,0-.556-5.658,24.328,24.328,0,0,1,2.783.98c3.016,1.285,4.875,2.963,5.223,4.678Zm-1.171,0h-9.4V13.14a39.832,39.832,0,0,1,8.761,1.039,32.645,32.645,0,0,1,.642,5.991Zm-9.4-8.2V2.2c2.387.261,4.635,2.112,6.383,5.282A22.915,22.915,0,0,1,28.9,12.911,41.58,41.58,0,0,0,20.428,11.969Zm-1.171,0a41.58,41.58,0,0,0-8.466.941,21.362,21.362,0,0,1,2.919-6.792c1.624-2.361,3.531-3.706,5.547-3.924ZM8.682,21.341A34.091,34.091,0,0,0,9.238,27a24.327,24.327,0,0,1-2.783-.98C3.44,24.734,1.58,23.056,1.232,21.341Zm1.171,0h9.4v7.03A39.832,39.832,0,0,1,10.5,27.332a32.646,32.646,0,0,1-.642-5.991Zm9.4,8.2v9.774c-2.387-.261-4.635-2.112-6.383-5.282A22.915,22.915,0,0,1,10.785,28.6,41.577,41.577,0,0,0,19.257,29.542ZM37,8.519a2.215,2.215,0,1,1-2.215-2.2A2.212,2.212,0,0,1,37,8.519ZM31.979,6.627A3.348,3.348,0,0,0,31.4,8.519a3.387,3.387,0,0,0,4.714,3.1A18.469,18.469,0,0,1,38.2,17.358a13.074,13.074,0,0,0-4.512-2.943,26.179,26.179,0,0,0-3.509-1.191,24.523,24.523,0,0,0-2.343-6.313,13.847,13.847,0,0,0-3.355-4.168,18.632,18.632,0,0,1,7.5,3.884ZM2.6,7.7a3.038,3.038,0,1,1,3.038,3.023A3.034,3.034,0,0,1,2.6,7.7Zm1.093,3.718A4.2,4.2,0,0,0,9.2,5.474a18.525,18.525,0,0,1,6.016-2.74c-2.567,2.043-4.627,5.759-5.713,10.49A26.163,26.163,0,0,0,6,14.415a13.074,13.074,0,0,0-4.512,2.943A18.463,18.463,0,0,1,3.693,11.418ZM5.639,35.576a1.957,1.957,0,1,1,1.967-1.957A1.964,1.964,0,0,1,5.639,35.576Zm2.619-.237a3.1,3.1,0,0,0,.519-1.72,3.138,3.138,0,0,0-4.611-2.761,18.394,18.394,0,0,1-2.684-6.708A13.067,13.067,0,0,0,6,27.1a26.18,26.18,0,0,0,3.509,1.191A24.523,24.523,0,0,0,11.848,34.6a13.856,13.856,0,0,0,3.347,4.162A18.7,18.7,0,0,1,8.258,35.339ZM33.046,33.9a18.575,18.575,0,0,1-8.593,4.878,12.95,12.95,0,0,0,2.822-3.231.585.585,0,1,0-.989-.627c-1.66,2.617-3.721,4.155-5.858,4.394V29.542a43.275,43.275,0,0,0,6.167-.508,3.392,3.392,0,0,0,1.574,1.96c-.224.625-.469,1.228-.732,1.8a.585.585,0,1,0,1.064.49c.277-.6.536-1.239.772-1.9a3.384,3.384,0,0,0,3.951-3.327,3.364,3.364,0,0,0-.083-.739A14.656,14.656,0,0,0,37.753,24.6q.24-.223.45-.45A18.435,18.435,0,0,1,33.046,33.9Z" transform="translate(0 -0.991)" fill="#0f0c75"/>
      <g id="Ellipse_401" data-name="Ellipse 401" transform="translate(2.684 4.218)" fill="none" stroke="#fdc403" stroke-width="2">
        <ellipse cx="3" cy="2.5" rx="3" ry="2.5" stroke="none"/>
        <ellipse cx="3" cy="2.5" rx="4" ry="3.5" fill="none"/>
      </g>
    </g>
  </g>
</svg>
