<svg xmlns="http://www.w3.org/2000/svg" xmlns:xlink="http://www.w3.org/1999/xlink" width="53" height="47" viewBox="0 0 53 47">
  <defs>
    <clipPath id="clip-_3">
      <rect width="53" height="47"/>
    </clipPath>
  </defs>
  <g id="_3" data-name="3" clip-path="url(#clip-_3)">
    <g id="Group_14555" data-name="Group 14555" transform="translate(6 4)">
      <path id="Path_12246" data-name="Path 12246" d="M37.93,35.917h-.586V17.894a1.488,1.488,0,0,0-1.486-1.486H25.222V2.072A1.991,1.991,0,0,0,23.234.083H4.658A1.991,1.991,0,0,0,2.669,2.072V35.917H2.083a2.083,2.083,0,0,0,0,4.167H37.93a2.083,2.083,0,0,0,0-4.166ZM3.842,2.072a.817.817,0,0,1,.816-.816H23.234a.817.817,0,0,1,.816.816V16.408h-5a1.488,1.488,0,0,0-1.486,1.486v13.48a.586.586,0,0,0,1.172,0V17.894a.314.314,0,0,1,.314-.314H35.858a.314.314,0,0,1,.314.314V35.917H18.733v-1.8a.586.586,0,1,0-1.172,0v1.8H3.842ZM37.93,38.911H2.083a.911.911,0,0,1,0-1.822H37.93a.911.911,0,0,1,0,1.822Z" transform="translate(0 -0.083)" fill="#0f0c75"/>
      <path id="Path_12247" data-name="Path 12247" d="M75.262,45.787h-2.4A1.163,1.163,0,0,0,71.7,46.948v2.4a1.163,1.163,0,0,0,1.161,1.161h2.4a1.163,1.163,0,0,0,1.161-1.161v-2.4A1.163,1.163,0,0,0,75.262,45.787Zm-.011,3.556H72.868V46.959h2.383Z" transform="translate(-66.093 -42.215)" fill="#fdc403"/>
      <path id="Path_12248" data-name="Path 12248" d="M151.768,45.787h-2.4a1.163,1.163,0,0,0-1.161,1.161v2.4a1.163,1.163,0,0,0,1.161,1.161h2.4a1.163,1.163,0,0,0,1.161-1.161v-2.4A1.163,1.163,0,0,0,151.768,45.787Zm-.011,3.556h-2.383V46.959h2.383Z" transform="translate(-136.62 -42.215)" fill="#fdc403"/>
      <path id="Path_12249" data-name="Path 12249" d="M225.867,50.515h2.4a1.163,1.163,0,0,0,1.161-1.161v-2.4a1.163,1.163,0,0,0-1.161-1.161h-2.4a1.163,1.163,0,0,0-1.162,1.161v2.4A1.163,1.163,0,0,0,225.867,50.515Zm.011-3.556h2.383v2.383h-2.383Z" transform="translate(-207.144 -42.215)" fill="#fdc403"/>
      <path id="Path_12250" data-name="Path 12250" d="M75.262,139.412h-2.4a1.163,1.163,0,0,0-1.161,1.161v2.4a1.163,1.163,0,0,0,1.161,1.161h2.4a1.163,1.163,0,0,0,1.161-1.161v-2.4A1.163,1.163,0,0,0,75.262,139.412Zm-.011,3.555H72.868v-2.383h2.383Z" transform="translate(-66.093 -128.523)" fill="#0f0c75"/>
      <path id="Path_12251" data-name="Path 12251" d="M151.768,139.412h-2.4a1.163,1.163,0,0,0-1.161,1.161v2.4a1.163,1.163,0,0,0,1.161,1.161h2.4a1.163,1.163,0,0,0,1.161-1.161v-2.4A1.163,1.163,0,0,0,151.768,139.412Zm-.011,3.555h-2.383v-2.383h2.383Z" transform="translate(-136.62 -128.523)" fill="#0f0c75"/>
      <path id="Path_12252" data-name="Path 12252" d="M225.867,144.141h2.4a1.163,1.163,0,0,0,1.161-1.161v-2.4a1.163,1.163,0,0,0-1.161-1.161h-2.4a1.163,1.163,0,0,0-1.162,1.161v2.4A1.163,1.163,0,0,0,225.867,144.141Zm.011-3.556h2.383v2.383h-2.383Z" transform="translate(-207.144 -128.524)" fill="#0f0c75"/>
      <path id="Path_12253" data-name="Path 12253" d="M75.262,233.036h-2.4A1.163,1.163,0,0,0,71.7,234.2v2.4a1.163,1.163,0,0,0,1.161,1.161h2.4a1.163,1.163,0,0,0,1.161-1.161v-2.4A1.163,1.163,0,0,0,75.262,233.036Zm-.011,3.555H72.868v-2.383h2.383Z" transform="translate(-66.093 -214.831)" fill="#0f0c75"/>
      <path id="Path_12254" data-name="Path 12254" d="M151.768,233.036h-2.4A1.163,1.163,0,0,0,148.2,234.2v2.4a1.163,1.163,0,0,0,1.161,1.161h2.4a1.163,1.163,0,0,0,1.161-1.161v-2.4A1.163,1.163,0,0,0,151.768,233.036Zm-.011,3.555h-2.383v-2.383h2.383Z" transform="translate(-136.62 -214.831)" fill="#0f0c75"/>
      <path id="Path_12255" data-name="Path 12255" d="M75.262,326.661h-2.4a1.163,1.163,0,0,0-1.161,1.161v2.4a1.163,1.163,0,0,0,1.161,1.161h2.4a1.163,1.163,0,0,0,1.161-1.161v-2.4A1.163,1.163,0,0,0,75.262,326.661Zm-.011,3.556H72.868v-2.383h2.383Z" transform="translate(-66.093 -301.139)" fill="#0f0c75"/>
      <path id="Path_12256" data-name="Path 12256" d="M151.768,326.661h-2.4a1.163,1.163,0,0,0-1.161,1.161v2.4a1.163,1.163,0,0,0,1.161,1.161h2.4a1.163,1.163,0,0,0,1.161-1.161v-2.4A1.163,1.163,0,0,0,151.768,326.661Zm-.011,3.556h-2.383v-2.383h2.383Z" transform="translate(-136.62 -301.139)" fill="#0f0c75"/>
      <path id="Path_12257" data-name="Path 12257" d="M258.345,253.071h2.277a1,1,0,0,0,1-1v-2.22a1,1,0,0,0-1-1h-2.277a1,1,0,0,0-1,1v2.22A1,1,0,0,0,258.345,253.071Zm.171-3.05h1.936V251.9h-1.936Z" transform="translate(-237.232 -229.407)" fill="#fdc403"/>
      <path id="Path_12258" data-name="Path 12258" d="M258.345,314.38h2.277a1,1,0,0,0,1-1v-2.219a1,1,0,0,0-1-1h-2.277a1,1,0,0,0-1,1v2.219A1,1,0,0,0,258.345,314.38Zm.171-3.05h1.936v1.878h-1.936Z" transform="translate(-237.232 -285.925)" fill="#0f0c75"/>
      <path id="Path_12259" data-name="Path 12259" d="M258.345,375.689h2.277a1,1,0,0,0,1-1v-2.22a1,1,0,0,0-1-1h-2.277a1,1,0,0,0-1,1v2.22A1,1,0,0,0,258.345,375.689Zm.171-3.051h1.936v1.878h-1.936Z" transform="translate(-237.232 -342.442)" fill="#0f0c75"/>
      <path id="Path_12260" data-name="Path 12260" d="M324.889,253.071h2.277a1,1,0,0,0,1-1v-2.22a1,1,0,0,0-1-1h-2.277a1,1,0,0,0-1,1v2.22A1,1,0,0,0,324.889,253.071Zm.171-3.05H327V251.9h-1.936Z" transform="translate(-298.575 -229.407)" fill="#fdc403"/>
      <path id="Path_12261" data-name="Path 12261" d="M324.889,314.38h2.277a1,1,0,0,0,1-1v-2.219a1,1,0,0,0-1-1h-2.277a1,1,0,0,0-1,1v2.219A1,1,0,0,0,324.889,314.38Zm.171-3.05H327v1.878h-1.936Z" transform="translate(-298.575 -285.925)" fill="#0f0c75"/>
      <path id="Path_12262" data-name="Path 12262" d="M324.889,375.689h2.277a1,1,0,0,0,1-1v-2.22a1,1,0,0,0-1-1h-2.277a1,1,0,0,0-1,1v2.22A1,1,0,0,0,324.889,375.689Zm.171-3.051H327v1.878h-1.936Z" transform="translate(-298.575 -342.442)" fill="#0f0c75"/>
      <path id="Path_12263" data-name="Path 12263" d="M391.434,253.071h2.277a1,1,0,0,0,1-1v-2.22a1,1,0,0,0-1-1h-2.277a1,1,0,0,0-1,1v2.22A1,1,0,0,0,391.434,253.071Zm.171-3.05h1.936V251.9H391.6Z" transform="translate(-359.92 -229.407)" fill="#fdc403"/>
      <path id="Path_12264" data-name="Path 12264" d="M391.434,314.38h2.277a1,1,0,0,0,1-1v-2.219a1,1,0,0,0-1-1h-2.277a1,1,0,0,0-1,1v2.219A1,1,0,0,0,391.434,314.38Zm.171-3.05h1.936v1.878H391.6Z" transform="translate(-359.92 -285.925)" fill="#0f0c75"/>
      <path id="Path_12265" data-name="Path 12265" d="M391.434,375.689h2.277a1,1,0,0,0,1-1v-2.22a1,1,0,0,0-1-1h-2.277a1,1,0,0,0-1,1v2.22A1,1,0,0,0,391.434,375.689Zm.171-3.051h1.936v1.878H391.6Z" transform="translate(-359.92 -342.442)" fill="#0f0c75"/>
    </g>
  </g>
</svg>
