<svg xmlns="http://www.w3.org/2000/svg" xmlns:xlink="http://www.w3.org/1999/xlink" width="51" height="45" viewBox="0 0 51 45">
    <defs>
        <clipPath id="clip-_99">
            <rect width="51" height="45"/>
        </clipPath>
    </defs>
    <g id="_99" data-name="99" clip-path="url(#clip-_99)">
        <g id="XMLID_1062_" transform="translate(9.316 6.221)">
            <g id="XMLID_727_" transform="translate(0 0.102)">
                <path id="XMLID_728_" d="M326.209,283.216a.634.634,0,1,0,.447-.185A.636.636,0,0,0,326.209,283.216Z" transform="translate(-305.424 -265.154)" fill="#fff"/>
                <path id="XMLID_1327_" d="M31.966,30.128l-.04-.04-1.669-7.013a6.607,6.607,0,0,0-6.45-5.095h-.047a.632.632,0,0,0,0,1.264h.047a5.348,5.348,0,0,1,5.22,4.124l1.194,5.016L24.84,23a.632.632,0,0,0-.447-.185H21.58a.63.63,0,0,0-.23.044,10.351,10.351,0,0,0-10.335,0,.631.631,0,0,0-.229-.044H7.973A.632.632,0,0,0,7.526,23L2.141,28.387l1.186-5.013a5.347,5.347,0,0,1,5.222-4.131H13.4a4.209,4.209,0,0,0,5.756-.185.632.632,0,0,0,.185-.447V15.37a5.989,5.989,0,0,0,2.7-3.927h.491A2.151,2.151,0,0,0,24.68,9.294V8.954a2.151,2.151,0,0,0-2.148-2.148h-.382V6.076a5.974,5.974,0,0,0-11.948,0v.729H9.82A2.151,2.151,0,0,0,7.671,8.954v.341A2.151,2.151,0,0,0,9.82,11.443h.491a5.989,5.989,0,0,0,2.7,3.927v2.61H8.549a6.63,6.63,0,0,0-6.452,5.1l-1.658,7-.04.04a1.363,1.363,0,0,0,.964,2.327H5.643a.632.632,0,0,0,.544-.31l2.121-3.584.194.125a1.715,1.715,0,0,0,.605.241,7.6,7.6,0,0,0-.57,2.9.632.632,0,0,0,1.264,0,6.353,6.353,0,0,1,1.447-4.043l2.682,2.683a2.617,2.617,0,0,0-.379,1.36.632.632,0,0,0,1.264,0,1.369,1.369,0,1,1,2.738,0,.632.632,0,0,0,1.264,0,2.617,2.617,0,0,0-.379-1.36l2.682-2.682a6.353,6.353,0,0,1,1.447,4.043.632.632,0,0,0,1.264,0,7.6,7.6,0,0,0-.57-2.9,1.715,1.715,0,0,0,.605-.241l.194-.125,2.121,3.584a.632.632,0,0,0,.544.31H31a1.364,1.364,0,0,0,.964-2.327ZM23.416,8.954v.341a.886.886,0,0,1-.885.885h-.382V8.069h.382A.886.886,0,0,1,23.416,8.954ZM11.465,6.076a4.71,4.71,0,0,1,9.42,0v.729H19.226a1.8,1.8,0,0,1-.926-.254,8.18,8.18,0,0,0,.992-.846.632.632,0,1,0-.894-.894,6.761,6.761,0,0,1-4.812,1.993H11.465V6.076ZM8.935,9.294V8.954a.886.886,0,0,1,.885-.885H10.2v2.11H9.819A.886.886,0,0,1,8.935,9.294Zm2.53,1.011V8.069h2.121a8.037,8.037,0,0,0,3.55-.818,3.053,3.053,0,0,0,2.089.818h1.659V10.3a4.71,4.71,0,0,1-9.42,0Zm4.71,5.973a5.95,5.95,0,0,0,1.9-.309v2.367a2.951,2.951,0,0,1-3.8,0V15.968A5.951,5.951,0,0,0,16.175,16.278Zm4.418,7.606-.513.877a1.724,1.724,0,0,0-.167.39,7.632,7.632,0,0,0-7.462,0,1.724,1.724,0,0,0-.167-.39l-.512-.877a9.086,9.086,0,0,1,8.82,0ZM5.282,31.191H1.364a.1.1,0,0,1-.07-.17L4.885,27.43l1.648,1.648Zm3.157-4.048a.632.632,0,0,0-.885.21l-.356.6L5.779,26.536,8.235,24.08h2.189l.771,1.318a.467.467,0,0,1-.047.538l-1.354,1.6a.469.469,0,0,1-.609.091Zm6.384,2.426-2.682-2.683a6.371,6.371,0,0,1,8.085,0L17.543,29.57a2.628,2.628,0,0,0-2.72,0Zm9.1-2.426-.746.479a.468.468,0,0,1-.608-.091l-1.354-1.6a.468.468,0,0,1-.047-.538l.771-1.318h2.189l2.456,2.456-1.419,1.419-.356-.6a.632.632,0,0,0-.886-.21Zm7.167,3.986a.09.09,0,0,1-.092.061H27.084l-1.251-2.114,1.648-1.648,3.592,3.592A.09.09,0,0,1,31.094,31.13Z" transform="translate(0 -0.102)" fill="#ffffff"/>
            </g>
        </g>
    </g>
</svg>
