<svg xmlns="http://www.w3.org/2000/svg" xmlns:xlink="http://www.w3.org/1999/xlink" width="36" height="33" viewBox="0 0 36 33">
  <defs>
    <clipPath id="clip-_66">
      <rect width="36" height="33"/>
    </clipPath>
  </defs>
  <g id="_66" data-name="66" clip-path="url(#clip-_66)">
    <g id="arrival" transform="translate(-59.279 1.303)" opacity="0.763">
      <path id="Path_12733" data-name="Path 12733" d="M87.543,6.575a11.293,11.293,0,0,0-20.656.313A11.214,11.214,0,0,0,66,11.279a9.925,9.925,0,0,0,.485,2.845,21.106,21.106,0,0,0,1.246,3.066,43.027,43.027,0,0,0,2.715,4.662c.877,1.327,1.88,2.731,2.984,4.172,1.028,1.341,1.936,2.446,2.558,3.184H72.414a.594.594,0,1,0,0,1.187h9.74a.594.594,0,1,0,0-1.187H78.579c.684-.811,1.716-2.068,2.858-3.576,1.185-1.566,2.244-3.077,3.149-4.493a37.506,37.506,0,0,0,2.706-4.923.594.594,0,1,0-1.087-.479,50.46,50.46,0,0,1-5.715,9.178c-1.035,1.367-1.974,2.516-2.577,3.24-.215.258-.426.507-.628.742A83.414,83.414,0,0,1,71.93,21.93a42.4,42.4,0,0,1-3.312-5.638,12.522,12.522,0,0,1-1.429-5.013,10.094,10.094,0,0,1,10.1-10.092h0a10.066,10.066,0,0,1,10.086,9.658.592.592,0,0,0,.593.569h.026a.594.594,0,0,0,.568-.618,11.2,11.2,0,0,0-1.015-4.22Z" transform="translate(0 0)" fill="#ffffff"/>
      <path id="Path_12734" data-name="Path 12734" d="M197.521,135.108a.594.594,0,0,0-.828.143l-3.137,4.442-2.472-2.718a.594.594,0,0,0-.879.8l2.969,3.265a.595.595,0,0,0,.925-.057l3.563-5.046A.593.593,0,0,0,197.521,135.108Z" transform="translate(-116.688 -126.985)" fill="#fff"/>
      <ellipse id="Ellipse_461" data-name="Ellipse 461" cx="0.594" cy="0.594" rx="0.594" ry="0.594" transform="translate(87.06 12.869)" fill="#fff"/>
      <path id="Path_12735" data-name="Path 12735" d="M124.337,50a8.311,8.311,0,1,0,8.315,8.311A8.313,8.313,0,0,0,124.337,50Zm0,15.435a7.124,7.124,0,1,1,7.127-7.124A7.125,7.125,0,0,1,124.337,65.435Z" transform="translate(-47.052 -47.032)" fill="#fff"/>
    </g>
  </g>
</svg>
