<svg id="quality-assurance" xmlns="http://www.w3.org/2000/svg" width="56.034" height="55.473" viewBox="0 0 56.034 55.473">
  <path id="Path_9004" data-name="Path 9004" d="M43.054,25.745l-.634-1.693c-.567.212-1.141.407-1.709.578l.522,1.73C41.838,26.178,42.451,25.971,43.054,25.745Z" transform="translate(-4.821 -3.218)" fill="#0f0c75"/>
  <path id="Path_9005" data-name="Path 9005" d="M36.808,29.792V27.363c.671-.108,1.344-.24,2.012-.393l-.408-1.761c-.871.2-1.754.362-2.625.476l-.787.1v4c0,.242.005.484.018.724l1.806-.092c-.011-.211-.016-.42-.016-.633Z" transform="translate(-4.272 -3.33)" fill="#0f0c75"/>
  <path id="Path_9006" data-name="Path 9006" d="M18.423,13a5.423,5.423,0,1,0,5.423,5.423A5.428,5.428,0,0,0,18.423,13Zm0,9.038a3.615,3.615,0,1,1,3.615-3.615A3.619,3.619,0,0,1,18.423,22.038Z" transform="translate(-2.155 -2.155)" fill="#0f0c75"/>
  <path id="Path_9007" data-name="Path 9007" d="M44.085,18.763l-.431-.234-.431.234a24.155,24.155,0,0,1-11.324,2.9l-.9.005v7.479A18.757,18.757,0,0,0,43.345,46.73l.308.111.308-.111A18.757,18.757,0,0,0,56.306,29.149V21.671l-.9-.005a24.161,24.161,0,0,1-11.322-2.9ZM54.5,29.149A16.944,16.944,0,0,1,43.653,44.916,16.946,16.946,0,0,1,32.808,29.149v-5.7A25.983,25.983,0,0,0,43.654,20.58,25.986,25.986,0,0,0,54.5,23.451Z" transform="translate(-3.887 -2.687)" fill="#0f0c75"/>
  <path id="Path_9008" data-name="Path 9008" d="M40.575,31.009,36.586,35l5.8,5.8L53.6,29.575l-3.989-3.989-7.23,7.23Zm10.471-1.433-8.664,8.664L39.142,35l1.433-1.433,1.808,1.808,7.23-7.23Z" transform="translate(-4.424 -3.366)" fill="#fdc403"/>
  <path id="Path_9009" data-name="Path 9009" d="M57.034,16.364H52.67A20.465,20.465,0,0,1,41.262,12.9l-.531-.308-.5.332a20.429,20.429,0,0,1-6.7,2.9v-1.98l-2.381-.56a14.365,14.365,0,0,0-1.248-3.011l1.289-2.081L26.348,3.341,24.267,4.63a14.366,14.366,0,0,0-3.011-1.248L20.695,1H13.841l-.56,2.381A14.366,14.366,0,0,0,10.269,4.63L8.188,3.341,3.341,8.188,4.63,10.269A14.366,14.366,0,0,0,3.381,13.28L1,13.841v6.854l2.381.56A14.366,14.366,0,0,0,4.63,24.267L3.341,26.348l4.847,4.847,2.081-1.289a14.366,14.366,0,0,0,3.011,1.248l.56,2.381h6.854l.56-2.381a14.365,14.365,0,0,0,3.011-1.248l.417.258A22.364,22.364,0,0,0,28.972,40.81l-3.04,11.148,4.463-1.116,3.377,5.63,3.03-9.091a22,22,0,0,0,3.709,1.481l.255.076.255-.075a22,22,0,0,0,3.709-1.481l3.03,9.091,3.377-5.63L55.6,51.959,52.56,40.811a22.291,22.291,0,0,0,4.474-13.349ZM24.287,27.793l-.473.287a12.544,12.544,0,0,1-3.527,1.461l-.539.132-.484,2.054H15.272l-.484-2.054-.539-.132a12.544,12.544,0,0,1-3.527-1.461l-.473-.287L8.455,28.9,5.633,26.081l1.111-1.795-.287-.473a12.544,12.544,0,0,1-1.461-3.527l-.132-.539-2.055-.484V15.272l2.054-.484.132-.539a12.544,12.544,0,0,1,1.461-3.527l.287-.473-1.111-1.8L8.454,5.632l1.795,1.111.473-.287a12.544,12.544,0,0,1,3.527-1.461l.539-.132.484-2.054h3.991l.484,2.054.539.132a12.544,12.544,0,0,1,3.527,1.461l.473.287,1.795-1.111L28.9,8.454l-1.111,1.795.287.473a12.544,12.544,0,0,1,1.461,3.527l.132.539,2.055.484v.888a20.7,20.7,0,0,1-2.866.2h-.8A10.851,10.851,0,1,0,24.5,25.34v2.123c0,.159.016.315.02.474ZM24.5,16.364v6.307a9.025,9.025,0,1,1,1.761-6.307Zm8.8,35.808-2.045-3.408-2.767.691,1.9-6.957A22.393,22.393,0,0,0,35.2,46.483Zm19.745-2.717-2.767-.691-2.045,3.408-1.9-5.689A22.393,22.393,0,0,0,51.148,42.5Zm2.182-21.993a20.617,20.617,0,0,1-14.46,19.59,20.617,20.617,0,0,1-14.46-19.59V18.172h2.557a22.245,22.245,0,0,0,11.9-3.442,22.224,22.224,0,0,0,11.9,3.442h2.557Z" transform="translate(-1 -1)" fill="#0f0c75"/>
</svg>
