<svg xmlns="http://www.w3.org/2000/svg" xmlns:xlink="http://www.w3.org/1999/xlink" width="148" height="93" viewBox="0 0 148 93">
  <defs>
    <clipPath id="clip-_1">
      <rect width="148" height="93"/>
    </clipPath>
  </defs>
  <g id="_1" data-name="1" clip-path="url(#clip-_1)">
    <g id="surface1" transform="translate(48 19.701)">
      <path id="Path_12803" data-name="Path 12803" d="M417.093,95.455a1.9,1.9,0,0,1-2.611.622L404.2,89.751a1.9,1.9,0,1,1,1.989-3.231l10.283,6.326A1.9,1.9,0,0,1,417.093,95.455Zm0,0" transform="translate(-413.779 -87.066)" fill="#fdc403"/>
      <path id="Path_12804" data-name="Path 12804" d="M439.112,168.156l15.076-1.464a1.9,1.9,0,1,1,.367,3.776l-15.075,1.464c-.063.006-.125.009-.186.009a1.9,1.9,0,0,1-.182-3.785Zm0,0" transform="translate(-458.398 -151.978)" fill="#fdc403"/>
      <path id="Path_12805" data-name="Path 12805" d="M377.268,17.782a1.892,1.892,0,0,1-2.455-1.08L369.321,2.585a1.9,1.9,0,0,1,3.535-1.375l5.492,14.117A1.9,1.9,0,0,1,377.268,17.782Zm0,0" transform="translate(-368.082 -14.701)" fill="#fdc403"/>
      <path id="Path_12806" data-name="Path 12806" d="M22.4,21.978A2.916,2.916,0,0,1,26.29,21.1l1.457.853a2.673,2.673,0,0,1,1.265,1.663,2.551,2.551,0,0,1-.344,2.026l-.838,1.288,19.148,22.5,4.044,2.368a1.122,1.122,0,0,1,.4,1.591,1.234,1.234,0,0,1-1.038.549,1.26,1.26,0,0,1-.638-.172l-3.185-1.865-6.206,9.548a5.2,5.2,0,0,1,2.6.517l.043.021c.109.055.218.112.323.174l3.641,2.143a6.373,6.373,0,0,1,1.1.825A6.134,6.134,0,0,1,49.114,66.4l.9,1.286.661.944.017-.005.03-.013c.051-.022.1-.046.151-.072l.031-.016c.054-.031.107-.064.157-.1l.031-.023a1.714,1.714,0,0,0,.133-.108l.016-.014a1.79,1.79,0,0,0,.13-.135l.026-.031a1.722,1.722,0,0,0,.114-.154l5.262-8.1a1.6,1.6,0,0,0,.216-1.27,1.676,1.676,0,0,0-.793-1.043l-1.575-.922a1.123,1.123,0,0,1-.4-1.591,1.256,1.256,0,0,1,1.676-.377l1.575.922a3.986,3.986,0,0,1,1.884,2.477,3.78,3.78,0,0,1-.042,2l1.171.686a3.083,3.083,0,0,1,1.088,4.364L58.6,69.682A3.315,3.315,0,0,1,56.53,71.1a3.543,3.543,0,0,1-.776.087,3.448,3.448,0,0,1-1.747-.474l-1.173-.687a4.208,4.208,0,0,1-.8.544l3.381,4.834.8.517a1.535,1.535,0,0,1,1.613.176l2.1,1.676a1.547,1.547,0,0,1,1.633.024c.023.016.047.031.069.048L73.435,86.7a2.653,2.653,0,0,1,1.088,2.132v3.6a2.8,2.8,0,0,1-2.861,2.716H52.34a2.907,2.907,0,0,1-2.231-1.015l-1.6-1.892a1.355,1.355,0,0,1-.357-1.073l-2.156-1.722a1.386,1.386,0,0,1-.447-.625l-4.969.967a1.257,1.257,0,0,1-.223.023c-.145,0-.29,0-.434,0A6.755,6.755,0,0,1,36.343,89l-5.006-2.83c-.084,0-.167.008-.251.008a4.108,4.108,0,0,1-2.066-.556L25,83.284a3.67,3.67,0,0,1-1.32-5.188,3.875,3.875,0,0,1,1.594-1.4,3.649,3.649,0,0,1,.129-3.758,3.98,3.98,0,0,1,2.451-1.709,3.635,3.635,0,0,1,.494-2.8,3.969,3.969,0,0,1,2.319-1.674,3.638,3.638,0,0,1,.456-2.949,3.9,3.9,0,0,1,.531-.653L7.524,58.175l-.838,1.288a2.862,2.862,0,0,1-2.408,1.273,2.918,2.918,0,0,1-1.478-.4l-1.457-.853A2.676,2.676,0,0,1,.077,57.82a2.549,2.549,0,0,1,.345-2.026Zm32.881,46.77a.94.94,0,0,0,.684.1.9.9,0,0,0,.562-.385L59.5,63.9a.836.836,0,0,0-.295-1.182l-1.033-.605-3.923,6.034ZM52.008,92.685a.431.431,0,0,0,.332.151H71.663a.416.416,0,0,0,.426-.4v-3.6a.4.4,0,0,0-.162-.317l-11.079-8.3L50.862,91.331Zm-2.476-3.436L58.291,79.5l-1.3-1.036L48.3,88.266ZM37.6,87.013a4.636,4.636,0,0,0,2.6.488l6.239-1.214a1.278,1.278,0,0,1,.441-.009l7.658-8.638-.694-.45h0l-.034-.025c-.026-.019-.052-.037-.076-.057l-.035-.031c-.025-.022-.048-.044-.07-.067l-.027-.028a1.231,1.231,0,0,1-.077-.1l-.007-.008-.006-.008-.006-.009-6.44-9.207c-.014-.02-.027-.04-.04-.061a3.88,3.88,0,0,0-1.345-1.314l-3.641-2.143c-.067-.04-.136-.075-.2-.108-.031-.015-.063-.028-.094-.042s-.073-.031-.11-.045-.085-.031-.129-.045l-.068-.021c-.053-.016-.107-.031-.161-.043h0a2.716,2.716,0,0,0-.594-.069h-.013c-.058,0-.116,0-.174.006l-.056,0c-.051,0-.1.01-.153.017l-.091.016c-.077.014-.154.031-.23.052l-.088.023c-.039.013-.076.026-.114.041s-.06.022-.089.034-.075.032-.112.049l-.082.04c-.037.019-.074.039-.11.06l-.073.045c-.036.023-.072.046-.107.071s-.042.031-.062.047c-.036.027-.072.054-.106.084a2.253,2.253,0,0,0-.431.491l-.089.139-1.3,2.011-1.629,2.524-.414.642a1,1,0,0,0-.1.19,1.027,1.027,0,0,0-.034.626,1.2,1.2,0,0,0,.573.738l.733.425h0a1.309,1.309,0,0,0,.155.075l.034.014a1.291,1.291,0,0,0,.16.051l.02,0a1.339,1.339,0,0,0,.152.025l.03,0a1.479,1.479,0,0,0,.163,0l.03,0a1.351,1.351,0,0,0,.164-.02h0a1.245,1.245,0,0,0,.169-.046l.015,0a1.163,1.163,0,0,0,.315-.173h0a1.154,1.154,0,0,0,.131-.119l.01-.011a1,1,0,0,0,.1-.133L39.2,69.917a3.216,3.216,0,0,1,2.02-1.386,3.48,3.48,0,0,1,2.542.4,1.155,1.155,0,0,1,.565.826c.014.1.031.2.049.291.014.07.03.139.046.208.005.023.01.046.016.069.022.087.045.172.071.256l0,.01a4.778,4.778,0,0,0,.574,1.229,0,0,0,0,1,0,0,5.6,5.6,0,0,0,1.934,1.758,1.123,1.123,0,0,1,.408,1.588,1.256,1.256,0,0,1-1.673.387,8.875,8.875,0,0,1-1.579-1.15l-5.085,7.613a5.12,5.12,0,0,1-4.231,2.179c-.089,0-.178,0-.266-.009-.035.06-.07.12-.108.179a3.837,3.837,0,0,1-.492.613Zm-1.033-8.5v0c-.02.054-.042.107-.066.161l-.008.019c-.021.048-.044.1-.067.143-.006.01-.01.022-.016.033-.022.045-.047.088-.071.132-.008.013-.014.026-.022.039-.032.057-.067.113-.1.168-.061.1-.127.186-.2.275l-.075.093c-.045.054-.091.107-.139.158-.034.036-.067.073-.1.108s-.055.051-.082.076a3.947,3.947,0,0,1-.309.264l-.034.025a3.987,3.987,0,0,1-.673.409,3.672,3.672,0,0,1,.43,1.258,2.616,2.616,0,0,0,2.011-1.109l5.6-8.381a7.19,7.19,0,0,1-.595-1.63.953.953,0,0,0-.261.022.8.8,0,0,0-.505.343l-1.214,1.884-.006.008a3.225,3.225,0,0,1-.193.267c-.051.063-.105.122-.16.181-.019.02-.036.043-.056.063l-.008.031q-.029.12-.065.238c-.008.023-.015.046-.022.069-.03.089-.062.178-.1.264,0,.009-.008.017-.011.026-.034.079-.071.157-.111.234-.011.022-.023.045-.035.066-.046.084-.093.167-.145.249a3.982,3.982,0,0,1-2.447,1.709A3.616,3.616,0,0,1,36.562,78.514Zm-.777-13.757-.409-.237a1.646,1.646,0,0,0-1.2-.179,1.569,1.569,0,0,0-.979.677,1.461,1.461,0,0,0,.525,2.065l.407.236,1.2-1.865ZM26.71,78.642a1.528,1.528,0,0,0-.953.659,1.423,1.423,0,0,0,.512,2.011l4.022,2.334a1.6,1.6,0,0,0,1.068.191c.021,0,.042-.009.064-.012l.033-.006a1.528,1.528,0,0,0,.954-.659,1.416,1.416,0,0,0,.193-.472.085.085,0,0,1,0-.013,1.423,1.423,0,0,0-.408-1.3l-.028-.027-.055-.048c-.018-.016-.037-.031-.058-.046l-.044-.033c-.036-.025-.072-.049-.111-.072l0,0-.8-.464a4.244,4.244,0,0,1-.414-.208l-3.077-1.786A1.61,1.61,0,0,0,26.71,78.642Zm2.8-5.067a1.649,1.649,0,0,0-1.053-.1,1.57,1.57,0,0,0-.979.677A1.461,1.461,0,0,0,28,76.213l.724.42a4.119,4.119,0,0,1,.417.21l3.061,1.775a1.651,1.651,0,0,0,1.652-.295h0c.034-.03.067-.061.1-.094l.024-.028c.023-.025.046-.051.067-.078s.058-.077.084-.117.051-.084.073-.128c.007-.014.013-.028.02-.042.014-.03.028-.06.04-.09s.011-.032.017-.048.02-.058.028-.088.009-.033.013-.049.013-.06.019-.09l.008-.047q.007-.047.01-.094c0-.015,0-.03,0-.045,0-.033,0-.065,0-.1,0-.014,0-.028,0-.042,0-.033-.006-.066-.01-.1,0-.014,0-.028-.005-.042,0-.029-.011-.058-.017-.087a1.486,1.486,0,0,0-.507-.821l-.031-.029-.046-.037c-.038-.02-.077-.039-.114-.061l-3.951-2.293Q29.593,73.628,29.512,73.575ZM31.4,68.963a1.57,1.57,0,0,0-.979.677,1.455,1.455,0,0,0,.381,1.97c.041.021.081.043.121.066l3.051,1.77-.03-.023c-.058-.044-.117-.089-.171-.135-.034-.029-.067-.06-.1-.09-.049-.046-.1-.092-.146-.141-.032-.033-.063-.067-.093-.1-.044-.049-.087-.1-.127-.15-.029-.036-.057-.072-.084-.109-.039-.052-.075-.106-.112-.161-.025-.038-.049-.075-.072-.114-.035-.058-.067-.117-.1-.177-.02-.038-.041-.075-.058-.113-.032-.067-.06-.135-.088-.2-.013-.033-.028-.066-.04-.1-.037-.1-.071-.21-.1-.317s-.046-.207-.062-.31c-.005-.033-.008-.066-.012-.1-.009-.071-.016-.141-.02-.213,0-.039,0-.077,0-.116,0-.066,0-.132,0-.2,0-.039,0-.078.006-.117.005-.066.013-.132.022-.2.005-.037.01-.073.016-.11.013-.075.03-.148.049-.222.006-.026.011-.054.018-.08.028-.1.06-.2.1-.294.008-.019.016-.037.025-.057.027-.065.053-.131.084-.194l-.28-.163A1.645,1.645,0,0,0,31.4,68.963ZM2.447,57.288a.369.369,0,0,0,.174.229l1.457.854a.4.4,0,0,0,.535-.12l15.338-23.6a1.256,1.256,0,0,1,1.676-.377,1.122,1.122,0,0,1,.4,1.591L8.879,56.089l28.3,5.848,7.495-11.531-18.2-21.385L25,31.283a1.257,1.257,0,0,1-1.676.377,1.123,1.123,0,0,1-.4-1.591L26.6,24.433a.351.351,0,0,0,.048-.279.368.368,0,0,0-.174-.229l-1.457-.853a.4.4,0,0,0-.535.12L2.495,57.009A.351.351,0,0,0,2.447,57.288Zm0,0" transform="translate(-2.278 -26.45)" fill="#0f0c75"/>
    </g>
  </g>
</svg>
