<svg xmlns="http://www.w3.org/2000/svg" xmlns:xlink="http://www.w3.org/1999/xlink" width="53" height="47" viewBox="0 0 53 47">
  <defs>
    <clipPath id="clip-_1">
      <rect width="53" height="47"/>
    </clipPath>
  </defs>
  <g id="_1" data-name="1" clip-path="url(#clip-_1)">
    <g id="Group_14552" data-name="Group 14552" transform="translate(-88.806 -56.365)">
      <path id="Path_12240" data-name="Path 12240" d="M55.294,50.57q0-.044,0-.087a2.762,2.762,0,0,0-2.759-2.759V34.966L55.02,33.1a.69.69,0,0,0-.007-1.109l-5.924-4.329V20.138a.69.69,0,0,0,.69-.69V16.69a.69.69,0,0,0-.69-.69h-6.9a.69.69,0,0,0-.69.69v2.759a.69.69,0,0,0,.69.69v2.488l-5.11-3.734a.69.69,0,0,0-.814,0l-17.931,13.1A.69.69,0,0,0,18.33,33.1l2.483,1.862V47.724a2.762,2.762,0,0,0-2.759,2.759q0,.043,0,.087A2.759,2.759,0,0,0,18.744,56H54.606a2.759,2.759,0,0,0,.688-5.43ZM42.882,17.379H48.4v1.379H42.882Zm.69,6.207V20.138H47.71v6.52l-4.2-3.072Zm-6.9-3.284L53.447,32.559l-1.606,1.2L37.081,23.028a.69.69,0,0,0-.811,0L21.509,33.763l-1.606-1.2ZM17.365,53.241a1.381,1.381,0,0,1,1.359-1.379h0c.035,0,.071.009.106.011a.69.69,0,0,0,.692-.924,1.356,1.356,0,0,1-.089-.467A1.381,1.381,0,0,1,20.813,49.1v5.517H18.744A1.381,1.381,0,0,1,17.365,53.241ZM47.02,54.621H38.744V39.448H47.02Zm1.379,0V38.759a.69.69,0,0,0-.69-.69H38.054a.69.69,0,0,0-.69.69V54.621H22.192V34.972L36.675,24.439,51.158,34.972V54.621Zm6.207,0H52.537V49.1a1.381,1.381,0,0,1,1.379,1.379,1.356,1.356,0,0,1-.089.467.69.69,0,0,0,.692.924c.036,0,.071-.007.106-.011h0a1.379,1.379,0,1,1-.021,2.759Z" transform="translate(78.822 44.365)" fill="#fff"/>
      <path id="Path_12241" data-name="Path 12241" d="M128.966,272H120.69a.69.69,0,0,0-.69.69v9.655a.69.69,0,0,0,.69.69h8.276a.69.69,0,0,0,.69-.69V272.69A.69.69,0,0,0,128.966,272Zm-.69,4.828h-2.759v-3.448h2.759Zm-4.138-3.448v3.448h-2.759v-3.448Zm-2.759,4.828h2.759v3.448h-2.759Zm4.138,3.448v-3.448h2.759v3.448Z" transform="translate(-16.227 -189.566)" fill="#fdc403"/>
      <circle id="Ellipse_371" data-name="Ellipse 371" cx="0.69" cy="0.69" r="0.69" transform="translate(118.734 91.083) rotate(-67.5)" fill="#fdc403"/>
    </g>
  </g>
</svg>
