<svg xmlns="http://www.w3.org/2000/svg" xmlns:xlink="http://www.w3.org/1999/xlink" width="27" height="26" viewBox="0 0 27 26">
  <defs>
    <clipPath id="clip-_33">
      <rect width="27" height="26"/>
    </clipPath>
  </defs>
  <g id="_33" data-name="33" clip-path="url(#clip-_33)">
    <g id="Group_14565" data-name="Group 14565" transform="translate(6 5)">
      <g id="Icon_feather-share-2" data-name="Icon feather-share-2">
        <path id="Path_12731" data-name="Path 12731" d="M27.44,5.407a2.471,2.471,0,0,1-4.94,0,2.471,2.471,0,0,1,4.94,0Z" transform="translate(-12.619 -3)" fill="none" stroke="#0f0c75" stroke-linecap="round" stroke-linejoin="round" stroke-width="1.5"/>
        <path id="Path_12732" data-name="Path 12732" d="M9.44,15.907A2.471,2.471,0,1,1,6.97,13.5,2.439,2.439,0,0,1,9.44,15.907Z" transform="translate(-4.5 -7.885)" fill="none" stroke="#0f0c75" stroke-linecap="round" stroke-linejoin="round" stroke-width="1.5"/>
        <path id="Path_12733" data-name="Path 12733" d="M27.44,26.407A2.471,2.471,0,1,1,24.97,24,2.439,2.439,0,0,1,27.44,26.407Z" transform="translate(-12.619 -12.77)" fill="none" stroke="#0f0c75" stroke-linecap="round" stroke-linejoin="round" stroke-width="1.5"/>
        <path id="Path_12734" data-name="Path 12734" d="M12.885,20.265l5.624,3.193" transform="translate(-8.282 -11.032)" fill="none" stroke="#0f0c75" stroke-linecap="round" stroke-linejoin="round" stroke-width="1.5"/>
        <path id="Path_12735" data-name="Path 12735" d="M18.5,9.765l-5.615,3.193" transform="translate(-8.282 -6.147)" fill="none" stroke="#0f0c75" stroke-linecap="round" stroke-linejoin="round" stroke-width="1.5"/>
      </g>
    </g>
  </g>
</svg>
