<svg xmlns="http://www.w3.org/2000/svg" xmlns:xlink="http://www.w3.org/1999/xlink" width="39" height="36" viewBox="0 0 39 36">
  <defs>
    <clipPath id="clip-_88">
      <rect width="39" height="36"/>
    </clipPath>
  </defs>
  <g id="_88" data-name="88" clip-path="url(#clip-_88)">
    <g id="pickup-truck" transform="translate(2.001 4.699)" opacity="0.763">
      <path id="Path_12729" data-name="Path 12729" d="M108.013,67.144a.724.724,0,0,0,.524.214.755.755,0,0,0,.523-.214.734.734,0,0,0-.015-1.039l-1.77-1.755V60.737a.737.737,0,0,0-1.475,0v3.915a.776.776,0,0,0,.229.523Zm0,0" transform="translate(-98.001 -55.298)" fill="#fff"/>
      <path id="Path_12730" data-name="Path 12730" d="M32.758,13.786h-.17L29.448,7.91A3.807,3.807,0,0,0,26.056,5.9h-.015L19.826,5.9a.746.746,0,0,0-.752.73v7.152H16.257A8.6,8.6,0,0,0,17.614,9.1,8.807,8.807,0,0,0,0,9.1a8.665,8.665,0,0,0,1.357,4.682H.951a.785.785,0,0,0-.759.767v7.432a.746.746,0,0,0,.759.723H2.735a3.733,3.733,0,0,0,7.343,0H25.857a3.724,3.724,0,0,0,7.329,0h1.121a.746.746,0,0,0,.759-.723V16.1A2.327,2.327,0,0,0,32.758,13.786ZM20.548,7.371h5.5A2.348,2.348,0,0,1,28.142,8.6l2.772,5.183H20.548ZM8.81,1.79A7.336,7.336,0,1,1,1.474,9.126,7.336,7.336,0,0,1,8.81,1.79Zm-2.4,22.517a2.256,2.256,0,1,1,2.256-2.256A2.256,2.256,0,0,1,6.407,24.307Zm0-5.994a3.793,3.793,0,0,0-3.642,2.92H1.673V15.261h.855a8.795,8.795,0,0,0,12.564,0h3.981v5.972H10.049A3.779,3.779,0,0,0,6.407,18.313Zm23.115,5.994a2.256,2.256,0,1,1,2.256-2.256A2.256,2.256,0,0,1,29.521,24.307ZM33.6,21.233h-.442a3.727,3.727,0,0,0-7.277,0H20.548V15.261h12.21a.866.866,0,0,1,.84.848Zm0,0" transform="translate(0 0)" fill="#fff"/>
    </g>
  </g>
</svg>
