<svg xmlns="http://www.w3.org/2000/svg" xmlns:xlink="http://www.w3.org/1999/xlink" width="36" height="33" viewBox="0 0 36 33">
  <defs>
    <clipPath id="clip-_77">
      <rect width="36" height="33"/>
    </clipPath>
  </defs>
  <g id="_77" data-name="77" clip-path="url(#clip-_77)">
    <g id="delivery-truck" transform="translate(1.884 3.767)" opacity="0.763">
      <path id="Path_12731" data-name="Path 12731" d="M30.139,112.387h-.168l-2.915-5.493A3.556,3.556,0,0,0,23.92,105h-.014l-5.728.02a.659.659,0,0,0-.652.678v6.689H.65a.64.64,0,0,0-.652.652v6.89a.634.634,0,0,0,.652.645H2.315a3.445,3.445,0,0,0,6.783,0H23.746a3.445,3.445,0,0,0,6.783,0h1.054a.634.634,0,0,0,.651-.645v-5.453a2.079,2.079,0,0,0-2.1-2.089ZM18.87,106.363l5.044-.02h.007a2.216,2.216,0,0,1,1.948,1.182l2.579,4.862H18.87ZM5.707,122.1a2.1,2.1,0,1,1,1.487-.615A2.1,2.1,0,0,1,5.707,122.1Zm0-5.567a3.449,3.449,0,0,0-3.364,2.706h-1v-5.507H17.527v5.507H9.072A3.449,3.449,0,0,0,5.707,116.531Zm21.43,5.567a2.1,2.1,0,1,1,1.487-.615A2.1,2.1,0,0,1,27.137,122.1Zm3.754-2.861H30.5a3.445,3.445,0,0,0-6.729,0h-4.9v-5.507H30.139a.737.737,0,0,1,.752.746Zm0,0" transform="translate(0 -97.948)" fill="#fff"/>
      <path id="Path_12732" data-name="Path 12732" d="M34.572,12.962h10.45a1.536,1.536,0,0,0,1.545-1.524V4.453a.668.668,0,0,0-.054-.255L45.2.974A1.547,1.547,0,0,0,43.772,0H35.814A1.538,1.538,0,0,0,34.39.974L33.067,4.2A.727.727,0,0,0,33,4.459v6.984A1.558,1.558,0,0,0,34.572,12.962Zm10.45-1.343H34.572c-.108,0-.228-.074-.228-.181V5.1H37.5V7.636a.671.671,0,0,0,.3.557.687.687,0,0,0,.376.114.627.627,0,0,0,.249-.047l3.224-1.289a.672.672,0,0,0,.423-.625V5.1h3.156v6.333a.189.189,0,0,1-.2.181ZM40.723,5.1V5.89l-1.88.752V5.1ZM38.957,3.761l.369-2.418h.913l.376,2.418Zm5-2.29.927,2.29H41.972L41.6,1.343h2.176A.214.214,0,0,1,43.96,1.471Zm-8.146-.128h2.149l-.369,2.418H34.706l.933-2.29A.189.189,0,0,1,35.814,1.343Zm0,0" transform="translate(-30.785)" fill="#fff"/>
    </g>
  </g>
</svg>
