<svg xmlns="http://www.w3.org/2000/svg" xmlns:xlink="http://www.w3.org/1999/xlink" width="33" height="25" viewBox="0 0 33 25">
  <defs>
    <linearGradient id="linear-gradient" x1="1" y1="0.784" x2="0" y2="0.844" gradientUnits="objectBoundingBox">
      <stop offset="0" stop-color="#49039b"/>
      <stop offset="1" stop-color="#0f0c75"/>
    </linearGradient>
    <clipPath id="clip-Artboard_">
      <rect width="33" height="25"/>
    </clipPath>
  </defs>
  <g id="Artboard_" data-name="Artboard " clip-path="url(#clip-Artboard_)">
    <path id="Icon_metro-youtube-play" data-name="Icon metro-youtube-play" d="M20.01,15.33a.784.784,0,0,0-.409-.736l-6.976-4.36a.821.821,0,0,0-.886-.027.812.812,0,0,0-.45.763v8.72a.812.812,0,0,0,.45.763.942.942,0,0,0,.422.109.776.776,0,0,0,.463-.136l6.976-4.36a.784.784,0,0,0,.409-.736Zm6.976,0q0,1.308-.014,2.044t-.116,1.86a15.072,15.072,0,0,1-.307,2.01,3.187,3.187,0,0,1-.94,1.676,2.873,2.873,0,0,1-1.689.79,89.325,89.325,0,0,1-9.142.341,89.325,89.325,0,0,1-9.142-.341,2.9,2.9,0,0,1-1.7-.79,3.167,3.167,0,0,1-.947-1.676,16.865,16.865,0,0,1-.293-2.01q-.1-1.124-.116-1.86T2.571,15.33q0-1.308.014-2.044t.116-1.86a15.071,15.071,0,0,1,.307-2.01,3.187,3.187,0,0,1,.94-1.676,2.873,2.873,0,0,1,1.689-.79,89.325,89.325,0,0,1,9.142-.341,89.324,89.324,0,0,1,9.142.341,2.9,2.9,0,0,1,1.7.79,3.168,3.168,0,0,1,.947,1.676,16.865,16.865,0,0,1,.293,2.01q.1,1.124.116,1.86T26.986,15.33Z" transform="translate(0.43 -2.171)" fill="url(#linear-gradient)"/>
  </g>
</svg>
